  0
SECTION
  2
HEADER
  9
$ACADVER
  1
AC1014
  9
$ACADMAINTVER
 70
     0
  9
$DWGCODEPAGE
  3
ANSI_1252
  9
$INSBASE
 10
0.0
 20
0.0
 30
0.0
  9
$EXTMIN
 10
-0.005035
 20
-80.0
 30
-0.001526
  9
$EXTMAX
 10
56.781311
 20
80.007348
 30
0.0
  9
$LIMMIN
 10
0.0
 20
0.0
  9
$LIMMAX
 10
300.0
 20
300.0
  9
$ORTHOMODE
 70
     1
  9
$REGENMODE
 70
     1
  9
$FILLMODE
 70
     1
  9
$QTEXTMODE
 70
     0
  9
$MIRRTEXT
 70
     1
  9
$DRAGMODE
 70
     0
  9
$LTSCALE
 40
1.0
  9
$OSMODE
 70
     0
  9
$ATTMODE
 70
     1
  9
$TEXTSIZE
 40
2.31
  9
$TRACEWID
 40
0.05
  9
$TEXTSTYLE
  7
TIMES-ROMAN
  9
$CLAYER
  8
SW
  9
$CELTYPE
  6
BYLAYER
  9
$CECOLOR
 62
   256
  9
$CELTSCALE
 40
1.0
  9
$DELOBJ
 70
     1
  9
$DISPSILH
 70
     0
  9
$DIMSCALE
 40
1.0
  9
$DIMASZ
 40
0.18
  9
$DIMEXO
 40
0.0625
  9
$DIMDLI
 40
0.38
  9
$DIMRND
 40
0.0
  9
$DIMDLE
 40
0.0
  9
$DIMEXE
 40
0.18
  9
$DIMTP
 40
0.0
  9
$DIMTM
 40
0.0
  9
$DIMTXT
 40
0.18
  9
$DIMCEN
 40
0.09
  9
$DIMTSZ
 40
0.0
  9
$DIMTOL
 70
     0
  9
$DIMLIM
 70
     0
  9
$DIMTIH
 70
     1
  9
$DIMTOH
 70
     1
  9
$DIMSE1
 70
     0
  9
$DIMSE2
 70
     0
  9
$DIMTAD
 70
     0
  9
$DIMZIN
 70
     0
  9
$DIMBLK
  1

  9
$DIMASO
 70
     0
  9
$DIMSHO
 70
     0
  9
$DIMPOST
  1

  9
$DIMAPOST
  1

  9
$DIMALT
 70
     0
  9
$DIMALTD
 70
     2
  9
$DIMALTF
 40
25.4
  9
$DIMLFAC
 40
1.0
  9
$DIMTOFL
 70
     0
  9
$DIMTVP
 40
0.0
  9
$DIMTIX
 70
     0
  9
$DIMSOXD
 70
     0
  9
$DIMSAH
 70
     0
  9
$DIMBLK1
  1

  9
$DIMBLK2
  1

  9
$DIMSTYLE
  2
STANDARD
  9
$DIMCLRD
 70
     0
  9
$DIMCLRE
 70
     0
  9
$DIMCLRT
 70
     0
  9
$DIMTFAC
 40
1.0
  9
$DIMGAP
 40
0.09
  9
$DIMJUST
 70
     0
  9
$DIMSD1
 70
     0
  9
$DIMSD2
 70
     0
  9
$DIMTOLJ
 70
     1
  9
$DIMTZIN
 70
     0
  9
$DIMALTZ
 70
     0
  9
$DIMALTTZ
 70
     0
  9
$DIMFIT
 70
     5
  9
$DIMUPT
 70
     0
  9
$DIMUNIT
 70
     2
  9
$DIMDEC
 70
     4
  9
$DIMTDEC
 70
     4
  9
$DIMALTU
 70
     2
  9
$DIMALTTD
 70
     2
  9
$DIMTXSTY
  7
TIMES-ROMAN
  9
$DIMAUNIT
 70
     0
  9
$LUNITS
 70
     2
  9
$LUPREC
 70
     4
  9
$SKETCHINC
 40
0.1
  9
$FILLETRAD
 40
0.0
  9
$AUNITS
 70
     0
  9
$AUPREC
 70
     0
  9
$MENU
  1
apage
  9
$ELEVATION
 40
0.0
  9
$PELEVATION
 40
0.0
  9
$THICKNESS
 40
0.0
  9
$LIMCHECK
 70
     0
  9
$BLIPMODE
 70
     1
  9
$CHAMFERA
 40
0.0
  9
$CHAMFERB
 40
0.0
  9
$CHAMFERC
 40
0.0
  9
$CHAMFERD
 40
0.0
  9
$SKPOLY
 70
     0
  9
$TDCREATE
 40
2444243.857582060
  9
$TDUPDATE
 40
2444243.666418402
  9
$TDINDWG
 40
0.0019840278
  9
$TDUSRTIMER
 40
0.0019840278
  9
$USRTIMER
 70
     1
  9
$ANGBASE
 50
0.0
  9
$ANGDIR
 70
     0
  9
$PDMODE
 70
     3
  9
$PDSIZE
 40
0.0
  9
$PLINEWID
 40
0.5
  9
$COORDS
 70
     2
  9
$SPLFRAME
 70
     0
  9
$SPLINETYPE
 70
     6
  9
$SPLINESEGS
 70
     8
  9
$ATTDIA
 70
     0
  9
$ATTREQ
 70
     1
  9
$HANDLING
 70
     1
  9
$HANDSEED
  5
10D
  9
$SURFTAB1
 70
     6
  9
$SURFTAB2
 70
     6
  9
$SURFTYPE
 70
     6
  9
$SURFU
 70
     6
  9
$SURFV
 70
     6
  9
$UCSNAME
  2

  9
$UCSORG
 10
0.0
 20
0.0
 30
0.0
  9
$UCSXDIR
 10
1.0
 20
0.0
 30
0.0
  9
$UCSYDIR
 10
0.0
 20
1.0
 30
0.0
  9
$PUCSNAME
  2

  9
$PUCSORG
 10
0.0
 20
0.0
 30
0.0
  9
$PUCSXDIR
 10
1.0
 20
0.0
 30
0.0
  9
$PUCSYDIR
 10
0.0
 20
1.0
 30
0.0
  9
$USERI1
 70
     0
  9
$USERI2
 70
     0
  9
$USERI3
 70
     0
  9
$USERI4
 70
     0
  9
$USERI5
 70
     0
  9
$USERR1
 40
0.0
  9
$USERR2
 40
0.0
  9
$USERR3
 40
0.0
  9
$USERR4
 40
0.0
  9
$USERR5
 40
0.0
  9
$WORLDVIEW
 70
     1
  9
$SHADEDGE
 70
     3
  9
$SHADEDIF
 70
    70
  9
$TILEMODE
 70
     1
  9
$MAXACTVP
 70
    48
  9
$PINSBASE
 10
0.0
 20
0.0
 30
0.0
  9
$PLIMCHECK
 70
     0
  9
$PEXTMIN
 10
1.000000E+20
 20
1.000000E+20
 30
1.000000E+20
  9
$PEXTMAX
 10
-1.000000E+20
 20
-1.000000E+20
 30
-1.000000E+20
  9
$PLIMMIN
 10
0.0
 20
0.0
  9
$PLIMMAX
 10
12.0
 20
9.0
  9
$UNITMODE
 70
     0
  9
$VISRETAIN
 70
     0
  9
$PLINEGEN
 70
   252
  9
$PSLTSCALE
 70
     0
  9
$TREEDEPTH
 70
  3020
  9
$PICKSTYLE
 70
     1
  9
$CMLSTYLE
  2
STANDARD
  9
$CMLJUST
 70
     0
  9
$CMLSCALE
 40
1.0
  9
$PROXYGRAPHICS
 70
     1
  9
$MEASUREMENT
 70
     0
  0
ENDSEC
  0
SECTION
  2
CLASSES
  0
CLASS
  1
DICTIONARYVAR
  2
AcDbDictionaryVar
  3
"AutoCAD"
 90
        0
280
     0
281
     0
  0
CLASS
  1
LWPOLYLINE
  2
AcDbPolyline
  3
"AutoCAD"
 90
        0
280
     0
281
     1
  0
ENDSEC
  0
SECTION
  2
TABLES
  0
TABLE
  2
VPORT
  5
8
100
AcDbSymbolTable
 70
     2
  0
VPORT
  5
10C
100
AcDbSymbolTableRecord
100
AcDbViewportTableRecord
  2
*ACTIVE
 70
     0
 10
0.0
 20
0.0
 11
1.0
 21
1.0
 12
28.388138
 22
39.99516
 13
0.0
 23
0.0
 14
0.1
 24
0.1
 15
0.0
 25
0.0
 16
0.0
 26
0.0
 36
1.0
 17
0.0
 27
0.0
 37
0.0
 40
268.834604
 41
1.981723
 42
50.0
 43
0.0
 44
0.0
 50
0.0
 51
0.0
 71
     0
 72
   100
 73
     1
 74
     1
 75
     1
 76
     0
 77
     0
 78
     0
  0
ENDTAB
  0
TABLE
  2
LTYPE
  5
5
100
AcDbSymbolTable
 70
     1
  0
LTYPE
  5
11
100
AcDbSymbolTableRecord
100
AcDbLinetypeTableRecord
  2
BYBLOCK
 70
     0
  3

 72
    65
 73
     0
 40
0.0
  0
LTYPE
  5
12
100
AcDbSymbolTableRecord
100
AcDbLinetypeTableRecord
  2
BYLAYER
 70
     0
  3

 72
    65
 73
     0
 40
0.0
  0
LTYPE
  5
13
100
AcDbSymbolTableRecord
100
AcDbLinetypeTableRecord
  2
CONTINUOUS
 70
     0
  3
Solid line
 72
    65
 73
     0
 40
0.0
  0
ENDTAB
  0
TABLE
  2
LAYER
  5
2
100
AcDbSymbolTable
 70
    11
  0
LAYER
  5
E
100
AcDbSymbolTableRecord
100
AcDbLayerTableRecord
  2
0
 70
     0
 62
     7
  6
CONTINUOUS
  0
LAYER
  5
21
100
AcDbSymbolTableRecord
100
AcDbLayerTableRecord
  2
HELP
 70
     0
 62
     7
  6
CONTINUOUS
  0
LAYER
  5
22
100
AcDbSymbolTableRecord
100
AcDbLayerTableRecord
  2
1
 70
     0
 62
     7
  6
CONTINUOUS
  0
LAYER
  5
23
100
AcDbSymbolTableRecord
100
AcDbLayerTableRecord
  2
2
 70
     0
 62
     7
  6
CONTINUOUS
  0
LAYER
  5
24
100
AcDbSymbolTableRecord
100
AcDbLayerTableRecord
  2
3
 70
     0
 62
     7
  6
CONTINUOUS
  0
LAYER
  5
25
100
AcDbSymbolTableRecord
100
AcDbLayerTableRecord
  2
SW
 70
     0
 62
     7
  6
CONTINUOUS
  0
LAYER
  5
26
100
AcDbSymbolTableRecord
100
AcDbLayerTableRecord
  2
GE
 70
     0
 62
     7
  6
CONTINUOUS
  0
LAYER
  5
27
100
AcDbSymbolTableRecord
100
AcDbLayerTableRecord
  2
NL
 70
     0
 62
     7
  6
CONTINUOUS
  0
LAYER
  5
28
100
AcDbSymbolTableRecord
100
AcDbLayerTableRecord
  2
FR
 70
     0
 62
     7
  6
CONTINUOUS
  0
LAYER
  5
29
100
AcDbSymbolTableRecord
100
AcDbLayerTableRecord
  2
IT
 70
     0
 62
     7
  6
CONTINUOUS
  0
LAYER
  5
2A
100
AcDbSymbolTableRecord
100
AcDbLayerTableRecord
  2
GB
 70
     0
 62
     7
  6
CONTINUOUS
  0
ENDTAB
  0
TABLE
  2
STYLE
  5
3
100
AcDbSymbolTable
 70
     5
  0
STYLE
  5
F
100
AcDbSymbolTableRecord
100
AcDbTextStyleTableRecord
  2
STANDARD
 70
     0
 40
0.0
 41
1.0
 50
0.0
 71
     0
 42
0.2
  3
txt
  4

  0
STYLE
  5
1D
100
AcDbSymbolTableRecord
100
AcDbTextStyleTableRecord
  2
TIMES-BOLD
 70
     0
 40
0.0
 41
1.0
 50
0.0
 71
     0
 42
3.57
  3
TIMESBOL
  4

  0
STYLE
  5
1E
100
AcDbSymbolTableRecord
100
AcDbTextStyleTableRecord
  2
TIMES-ROMAN
 70
     0
 40
0.0
 41
1.0
 50
0.0
 71
     0
 42
2.31
  3
TIMESROM
  4

  0
STYLE
  5
1F
100
AcDbSymbolTableRecord
100
AcDbTextStyleTableRecord
  2
TIMES-ITALIC
 70
     0
 40
0.0
 41
1.0
 50
0.0
 71
     0
 42
2.29
  3
TIMESITA
  4

  0
STYLE
  5
20
100
AcDbSymbolTableRecord
100
AcDbTextStyleTableRecord
  2
HELVETICA
 70
     0
 40
0.0
 41
1.0
 50
0.0
 71
     0
 42
3.57
  3
helvetic
  4

  0
ENDTAB
  0
TABLE
  2
VIEW
  5
6
100
AcDbSymbolTable
 70
     0
  0
ENDTAB
  0
TABLE
  2
UCS
  5
7
100
AcDbSymbolTable
 70
     0
  0
ENDTAB
  0
TABLE
  2
APPID
  5
9
100
AcDbSymbolTable
 70
     1
  0
APPID
  5
10
100
AcDbSymbolTableRecord
100
AcDbRegAppTableRecord
  2
ACAD
 70
     0
  0
ENDTAB
  0
TABLE
  2
DIMSTYLE
  5
A
100
AcDbSymbolTable
 70
     1
  0
DIMSTYLE
105
104
100
AcDbSymbolTableRecord
100
AcDbDimStyleTableRecord
  2
STANDARD
 70
     0
  3

  4

  5

  6

  7

 40
1.0
 41
0.18
 42
0.0625
 43
0.38
 44
0.18
 45
0.0
 46
0.0
 47
0.0
 48
0.0
140
0.18
141
0.09
142
0.0
143
25.4
144
1.0
145
0.0
146
1.0
147
0.09
 71
     0
 72
     0
 73
     1
 74
     1
 75
     0
 76
     0
 77
     0
 78
     0
170
     0
171
     2
172
     0
173
     0
174
     0
175
     0
176
     0
177
     0
178
     0
270
     2
271
     4
272
     4
273
     2
274
     2
340
F
275
     0
280
     0
281
     0
282
     0
283
     1
284
     0
285
     0
286
     0
287
     3
288
     0
  0
ENDTAB
  0
TABLE
  2
BLOCK_RECORD
  5
1
100
AcDbSymbolTable
 70
     1
  0
BLOCK_RECORD
  5
17
100
AcDbSymbolTableRecord
100
AcDbBlockTableRecord
  2
*MODEL_SPACE
  0
BLOCK_RECORD
  5
14
100
AcDbSymbolTableRecord
100
AcDbBlockTableRecord
  2
*PAPER_SPACE
  0
BLOCK_RECORD
  5
1C
100
AcDbSymbolTableRecord
100
AcDbBlockTableRecord
  2
RECTANG
  0
ENDTAB
  0
ENDSEC
  0
SECTION
  2
BLOCKS
  0
BLOCK
  5
2D
100
AcDbEntity
  8
0
100
AcDbBlockBegin
  2
*MODEL_SPACE
 70
     0
 10
0.0
 20
0.0
 30
0.0
  3
*MODEL_SPACE
  1

  0
ENDBLK
  5
2E
100
AcDbEntity
  8
0
100
AcDbBlockEnd
  0
BLOCK
  5
2B
100
AcDbEntity
 67
     1
  8
0
100
AcDbBlockBegin
  2
*PAPER_SPACE
 70
     0
 10
0.0
 20
0.0
 30
0.0
  3
*PAPER_SPACE
  1

  0
ENDBLK
  5
2C
100
AcDbEntity
 67
     1
  8
0
100
AcDbBlockEnd
  0
BLOCK
  5
32
100
AcDbEntity
  8
0
100
AcDbBlockBegin
  2
RECTANG
 70
     0
 10
0.0
 20
0.0
 30
0.0
  3
RECTANG
  1

  0
LINE
  5
33
100
AcDbEntity
  8
0
100
AcDbLine
 10
0.0
 20
0.0
 30
0.0
 11
1.0
 21
0.0
 31
0.0
  0
LINE
  5
34
100
AcDbEntity
  8
0
100
AcDbLine
 10
1.0
 20
0.0
 30
0.0
 11
1.0
 21
1.0
 31
0.0
  0
LINE
  5
35
100
AcDbEntity
  8
0
100
AcDbLine
 10
1.0
 20
1.0
 30
0.0
 11
0.0
 21
1.0
 31
0.0
  0
LINE
  5
36
100
AcDbEntity
  8
0
100
AcDbLine
 10
0.0
 20
1.0
 30
0.0
 11
0.0
 21
0.0
 31
0.0
  0
ENDBLK
  5
37
100
AcDbEntity
  8
0
100
AcDbBlockEnd
  0
ENDSEC
  0
SECTION
  2
ENTITIES
  0
LINE
  5
38
100
AcDbEntity
  8
SW
100
AcDbLine
 10
35.518672
 20
14.937759
 30
0.0
 11
37.178423
 21
13.941909
 31
0.0
  0
LINE
  5
39
100
AcDbEntity
  8
SW
100
AcDbLine
 10
37.178423
 20
13.941909
 30
0.0
 11
39.834025
 21
12.614108
 31
0.0
  0
LINE
  5
3A
100
AcDbEntity
  8
SW
100
AcDbLine
 10
39.834025
 20
12.614108
 30
0.0
 11
42.157676
 21
12.282158
 31
0.0
  0
LINE
  5
3B
100
AcDbEntity
  8
SW
100
AcDbLine
 10
42.157676
 20
12.282158
 30
0.0
 11
44.481328
 21
12.282158
 31
0.0
  0
LINE
  5
3C
100
AcDbEntity
  8
SW
100
AcDbLine
 10
44.481328
 20
12.282158
 30
0.0
 11
45.809129
 21
13.609959
 31
0.0
  0
LINE
  5
3D
100
AcDbEntity
  8
SW
100
AcDbLine
 10
45.809129
 20
13.609959
 30
0.0
 11
46.473029
 21
15.60166
 31
0.0
  0
LINE
  5
3E
100
AcDbEntity
  8
SW
100
AcDbLine
 10
46.473029
 20
15.60166
 30
0.0
 11
46.473029
 21
17.261411
 31
0.0
  0
LINE
  5
3F
100
AcDbEntity
  8
SW
100
AcDbLine
 10
46.473029
 20
17.261411
 30
0.0
 11
45.477178
 21
19.917012
 31
0.0
  0
LINE
  5
40
100
AcDbEntity
  8
SW
100
AcDbLine
 10
45.477178
 20
19.917012
 30
0.0
 11
43.153527
 21
21.576763
 31
0.0
  0
LINE
  5
41
100
AcDbEntity
  8
SW
100
AcDbLine
 10
43.153527
 20
21.576763
 30
0.0
 11
39.834025
 21
23.236515
 31
0.0
  0
LINE
  5
42
100
AcDbEntity
  8
SW
100
AcDbLine
 10
39.834025
 20
23.236515
 30
0.0
 11
37.510373
 21
23.236515
 31
0.0
  0
LINE
  5
43
100
AcDbEntity
  8
SW
100
AcDbLine
 10
37.510373
 20
23.236515
 30
0.0
 11
35.518672
 21
21.908714
 31
0.0
  0
LINE
  5
44
100
AcDbEntity
  8
SW
100
AcDbLine
 10
35.518672
 20
21.908714
 30
0.0
 11
33.858921
 21
20.580913
 31
0.0
  0
LINE
  5
45
100
AcDbEntity
  8
SW
100
AcDbLine
 10
33.858921
 20
20.580913
 30
0.0
 11
33.195021
 21
19.253112
 31
0.0
  0
LINE
  5
46
100
AcDbEntity
  8
SW
100
AcDbLine
 10
23.611763
 20
10.460761
 30
0.0
 11
24.896266
 21
7.634855
 31
0.0
  0
LINE
  5
47
100
AcDbEntity
  8
SW
100
AcDbLine
 10
24.896266
 20
7.634855
 30
0.0
 11
27.551867
 21
5.643154
 31
0.0
  0
LINE
  5
48
100
AcDbEntity
  8
SW
100
AcDbLine
 10
27.551867
 20
5.643154
 30
0.0
 11
27.995181
 21
5.544639
 31
0.0
  0
LINE
  5
49
100
AcDbEntity
  8
SW
100
AcDbLine
 10
27.219917
 20
20.580913
 30
0.0
 11
26.887967
 21
23.568465
 31
0.0
  0
LINE
  5
4A
100
AcDbEntity
  8
SW
100
AcDbLine
 10
26.887967
 20
23.568465
 30
0.0
 11
27.551867
 21
25.892116
 31
0.0
  0
LINE
  5
4B
100
AcDbEntity
  8
SW
100
AcDbLine
 10
27.551867
 20
25.892116
 30
0.0
 11
28.879668
 21
27.219917
 31
0.0
  0
LINE
  5
4C
100
AcDbEntity
  8
SW
100
AcDbLine
 10
32.53112
 20
19.253112
 30
0.0
 11
29.875519
 21
22.572614
 31
0.0
  0
LINE
  5
4D
100
AcDbEntity
  8
SW
100
AcDbLine
 10
29.875519
 20
22.572614
 30
0.0
 11
29.211618
 21
27.883817
 31
0.0
  0
LINE
  5
4E
100
AcDbEntity
  8
SW
100
AcDbLine
 10
29.211618
 20
27.883817
 30
0.0
 11
29.875519
 21
30.871369
 31
0.0
  0
LINE
  5
4F
100
AcDbEntity
  8
SW
100
AcDbLine
 10
29.875519
 20
30.871369
 30
0.0
 11
30.871369
 21
28.215768
 31
0.0
  0
LINE
  5
50
100
AcDbEntity
  8
SW
100
AcDbLine
 10
30.871369
 20
28.215768
 30
0.0
 11
34.190871
 21
25.228216
 31
0.0
  0
LINE
  5
51
100
AcDbEntity
  8
SW
100
AcDbLine
 10
34.190871
 20
25.228216
 30
0.0
 11
37.178423
 21
23.900415
 31
0.0
  0
LINE
  5
52
100
AcDbEntity
  8
SW
100
AcDbLine
 10
37.178423
 20
23.900415
 30
0.0
 11
38.174274
 21
23.236515
 31
0.0
  0
LINE
  5
53
100
AcDbEntity
  8
SW
100
AcDbLine
 10
38.174274
 20
23.236515
 30
0.0
 11
39.170124
 21
24.896266
 31
0.0
  0
LINE
  5
54
100
AcDbEntity
  8
SW
100
AcDbLine
 10
39.170124
 20
24.896266
 30
0.0
 11
38.838174
 21
27.551867
 31
0.0
  0
LINE
  5
55
100
AcDbEntity
  8
SW
100
AcDbLine
 10
38.838174
 20
27.551867
 30
0.0
 11
37.842324
 21
29.543568
 31
0.0
  0
LINE
  5
56
100
AcDbEntity
  8
SW
100
AcDbLine
 10
37.842324
 20
29.543568
 30
0.0
 11
37.510373
 21
29.875519
 31
0.0
  0
LINE
  5
57
100
AcDbEntity
  8
SW
100
AcDbLine
 10
37.510373
 20
29.875519
 30
0.0
 11
38.838174
 21
29.543568
 31
0.0
  0
LINE
  5
58
100
AcDbEntity
  8
SW
100
AcDbLine
 10
38.838174
 20
29.543568
 30
0.0
 11
41.825726
 21
27.551867
 31
0.0
  0
LINE
  5
59
100
AcDbEntity
  8
SW
100
AcDbLine
 10
41.825726
 20
27.551867
 30
0.0
 11
43.153527
 21
25.228216
 31
0.0
  0
LINE
  5
5A
100
AcDbEntity
  8
SW
100
AcDbLine
 10
43.153527
 20
25.228216
 30
0.0
 11
43.485477
 21
23.236515
 31
0.0
  0
LINE
  5
5B
100
AcDbEntity
  8
SW
100
AcDbLine
 10
43.485477
 20
23.236515
 30
0.0
 11
43.485477
 21
21.576763
 31
0.0
  0
LINE
  5
5C
100
AcDbEntity
  8
SW
100
AcDbLine
 10
36.846473
 20
8.962656
 30
0.0
 11
37.510373
 21
10.954357
 31
0.0
  0
LINE
  5
5D
100
AcDbEntity
  8
SW
100
AcDbLine
 10
37.510373
 20
10.954357
 30
0.0
 11
39.170124
 21
12.614108
 31
0.0
  0
LINE
  5
5E
100
AcDbEntity
  8
SW
100
AcDbLine
 10
33.858921
 20
8.298755
 30
0.0
 11
35.186722
 21
5.311203
 31
0.0
  0
LINE
  5
5F
100
AcDbEntity
  8
SW
100
AcDbLine
 10
35.186722
 20
5.311203
 30
0.0
 11
36.514523
 21
8.962656
 31
0.0
  0
LINE
  5
60
100
AcDbEntity
  8
SW
100
AcDbLine
 10
29.211618
 20
9.958506
 30
0.0
 11
29.543568
 21
8.298755
 31
0.0
  0
LINE
  5
61
100
AcDbEntity
  8
SW
100
AcDbLine
 10
29.543568
 20
8.298755
 30
0.0
 11
32.863071
 21
10.290456
 31
0.0
  0
LINE
  5
62
100
AcDbEntity
  8
SW
100
AcDbLine
 10
34.190871
 20
16.59751
 30
0.0
 11
33.858921
 21
12.614108
 31
0.0
  0
LINE
  5
63
100
AcDbEntity
  8
SW
100
AcDbLine
 10
33.858921
 20
12.614108
 30
0.0
 11
31.86722
 21
9.958506
 31
0.0
  0
LINE
  5
64
100
AcDbEntity
  8
SW
100
AcDbLine
 10
31.86722
 20
9.958506
 30
0.0
 11
31.53527
 21
10.954357
 31
0.0
  0
LINE
  5
65
100
AcDbEntity
  8
SW
100
AcDbLine
 10
31.53527
 20
10.954357
 30
0.0
 11
32.19917
 21
14.605809
 31
0.0
  0
LINE
  5
66
100
AcDbEntity
  8
SW
100
AcDbLine
 10
32.19917
 20
14.605809
 30
0.0
 11
33.195021
 21
16.59751
 31
0.0
  0
LINE
  5
67
100
AcDbEntity
  8
SW
100
AcDbLine
 10
37.178423
 20
13.941909
 30
0.0
 11
36.514523
 21
11.618257
 31
0.0
  0
LINE
  5
68
100
AcDbEntity
  8
SW
100
AcDbLine
 10
36.514523
 20
11.618257
 30
0.0
 11
34.854772
 21
9.626556
 31
0.0
  0
LINE
  5
69
100
AcDbEntity
  8
SW
100
AcDbLine
 10
34.854772
 20
9.626556
 30
0.0
 11
34.854772
 21
11.950207
 31
0.0
  0
LINE
  5
6A
100
AcDbEntity
  8
SW
100
AcDbLine
 10
34.854772
 20
11.950207
 30
0.0
 11
35.850622
 21
14.273859
 31
0.0
  0
LINE
  5
6B
100
AcDbEntity
  8
SW
100
AcDbLine
 10
32.53112
 20
12.282158
 30
0.0
 11
33.858921
 21
15.60166
 31
0.0
  0
LINE
  5
6C
100
AcDbEntity
  8
SW
100
AcDbLine
 10
34.854772
 20
11.950207
 30
0.0
 11
36.182573
 21
14.273859
 31
0.0
  0
LINE
  5
6D
100
AcDbEntity
  8
SW
100
AcDbLine
 10
27.219917
 20
18.589212
 30
0.0
 11
26.224066
 21
16.59751
 31
0.0
  0
LINE
  5
6E
100
AcDbEntity
  8
SW
100
AcDbLine
 10
26.224066
 20
16.59751
 30
0.0
 11
22.904564
 21
16.26556
 31
0.0
  0
LINE
  5
6F
100
AcDbEntity
  8
SW
100
AcDbLine
 10
22.904564
 20
16.26556
 30
0.0
 11
20.912863
 21
18.257261
 31
0.0
  0
LINE
  5
70
100
AcDbEntity
  8
SW
100
AcDbLine
 10
20.912863
 20
18.257261
 30
0.0
 11
21.244813
 21
20.580913
 31
0.0
  0
LINE
  5
71
100
AcDbEntity
  8
SW
100
AcDbLine
 10
21.244813
 20
20.580913
 30
0.0
 11
22.572614
 21
22.240664
 31
0.0
  0
LINE
  5
72
100
AcDbEntity
  8
SW
100
AcDbLine
 10
22.572614
 20
22.240664
 30
0.0
 11
24.564315
 21
22.240664
 31
0.0
  0
LINE
  5
73
100
AcDbEntity
  8
SW
100
AcDbLine
 10
24.564315
 20
22.240664
 30
0.0
 11
26.556017
 21
21.908714
 31
0.0
  0
LINE
  5
74
100
AcDbEntity
  8
SW
100
AcDbLine
 10
30.871369
 20
29.543568
 30
0.0
 11
32.19917
 21
30.207469
 31
0.0
  0
LINE
  5
75
100
AcDbEntity
  8
SW
100
AcDbLine
 10
32.19917
 20
30.207469
 30
0.0
 11
36.182573
 21
29.875519
 31
0.0
  0
LINE
  5
76
100
AcDbEntity
  8
SW
100
AcDbLine
 10
36.182573
 20
29.875519
 30
0.0
 11
38.506224
 21
28.879668
 31
0.0
  0
LINE
  5
77
100
AcDbEntity
  8
SW
100
AcDbLine
 10
28.879668
 20
27.551867
 30
0.0
 11
22.904564
 21
29.543568
 31
0.0
  0
LINE
  5
78
100
AcDbEntity
  8
SW
100
AcDbLine
 10
22.904564
 20
29.543568
 30
0.0
 11
16.929461
 21
30.539419
 31
0.0
  0
LINE
  5
79
100
AcDbEntity
  8
SW
100
AcDbLine
 10
16.929461
 20
30.539419
 30
0.0
 11
15.93361
 21
25.560166
 31
0.0
  0
LINE
  5
7A
100
AcDbEntity
  8
SW
100
AcDbLine
 10
15.93361
 20
25.560166
 30
0.0
 11
15.93361
 21
21.576763
 31
0.0
  0
LINE
  5
7B
100
AcDbEntity
  8
SW
100
AcDbLine
 10
15.93361
 20
21.576763
 30
0.0
 11
19.253112
 21
20.580913
 31
0.0
  0
LINE
  5
7C
100
AcDbEntity
  8
SW
100
AcDbLine
 10
19.253112
 20
20.580913
 30
0.0
 11
21.576763
 21
16.929461
 31
0.0
  0
LINE
  5
7D
100
AcDbEntity
  8
SW
100
AcDbLine
 10
21.576763
 20
16.929461
 30
0.0
 11
21.908714
 21
14.605809
 31
0.0
  0
LINE
  5
7E
100
AcDbEntity
  8
SW
100
AcDbLine
 10
21.908714
 20
14.605809
 30
0.0
 11
20.580913
 21
13.278008
 31
0.0
  0
LINE
  5
7F
100
AcDbEntity
  8
SW
100
AcDbLine
 10
20.580913
 20
13.278008
 30
0.0
 11
23.900415
 21
12.946058
 31
0.0
  0
LINE
  5
80
100
AcDbEntity
  8
SW
100
AcDbLine
 10
23.900415
 20
12.946058
 30
0.0
 11
25.560166
 21
12.282158
 31
0.0
  0
LINE
  5
81
100
AcDbEntity
  8
SW
100
AcDbLine
 10
25.560166
 20
12.282158
 30
0.0
 11
25.228216
 21
10.622407
 31
0.0
  0
LINE
  5
82
100
AcDbEntity
  8
SW
100
AcDbLine
 10
25.228216
 20
10.622407
 30
0.0
 11
21.908714
 21
10.290456
 31
0.0
  0
LINE
  5
83
100
AcDbEntity
  8
SW
100
AcDbLine
 10
21.908714
 20
10.290456
 30
0.0
 11
16.929461
 21
10.954357
 31
0.0
  0
LINE
  5
84
100
AcDbEntity
  8
SW
100
AcDbLine
 10
16.929461
 20
10.954357
 30
0.0
 11
13.278008
 21
14.605809
 31
0.0
  0
LINE
  5
85
100
AcDbEntity
  8
SW
100
AcDbLine
 10
13.278008
 20
14.605809
 30
0.0
 11
11.618257
 21
18.589212
 31
0.0
  0
LINE
  5
86
100
AcDbEntity
  8
SW
100
AcDbLine
 10
11.618257
 20
18.589212
 30
0.0
 11
10.622407
 21
23.568465
 31
0.0
  0
LINE
  5
87
100
AcDbEntity
  8
SW
100
AcDbLine
 10
10.622407
 20
23.568465
 30
0.0
 11
10.290456
 21
30.539419
 31
0.0
  0
LINE
  5
88
100
AcDbEntity
  8
SW
100
AcDbLine
 10
10.290456
 20
30.539419
 30
0.0
 11
10.954357
 21
33.858921
 31
0.0
  0
LINE
  5
89
100
AcDbEntity
  8
SW
100
AcDbLine
 10
10.954357
 20
33.858921
 30
0.0
 11
11.950207
 21
35.850622
 31
0.0
  0
LINE
  5
8A
100
AcDbEntity
  8
SW
100
AcDbLine
 10
11.950207
 20
35.850622
 30
0.0
 11
13.609959
 21
36.182573
 31
0.0
  0
LINE
  5
8B
100
AcDbEntity
  8
SW
100
AcDbLine
 10
22.029423
 20
35.572991
 30
0.0
 11
19.585062
 21
38.506224
 31
0.0
  0
LINE
  5
8C
100
AcDbEntity
  8
SW
100
AcDbLine
 10
33.195021
 20
47.46888
 30
0.0
 11
34.522822
 21
44.481328
 31
0.0
  0
LINE
  5
8D
100
AcDbEntity
  8
SW
100
AcDbLine
 10
34.522822
 20
44.481328
 30
0.0
 11
35.186722
 21
41.161826
 31
0.0
  0
LINE
  5
8E
100
AcDbEntity
  8
SW
100
AcDbLine
 10
35.186722
 20
41.161826
 30
0.0
 11
35.850622
 21
37.842324
 31
0.0
  0
LINE
  5
8F
100
AcDbEntity
  8
SW
100
AcDbLine
 10
35.850622
 20
37.842324
 30
0.0
 11
35.850622
 21
34.190871
 31
0.0
  0
LINE
  5
90
100
AcDbEntity
  8
SW
100
AcDbLine
 10
35.850622
 20
34.190871
 30
0.0
 11
36.182573
 21
29.875519
 31
0.0
  0
LINE
  5
91
100
AcDbEntity
  8
SW
100
AcDbLine
 10
36.182573
 20
30.539419
 30
0.0
 11
37.510373
 21
33.526971
 31
0.0
  0
LINE
  5
92
100
AcDbEntity
  8
SW
100
AcDbLine
 10
37.510373
 20
33.526971
 30
0.0
 11
39.170124
 21
35.850622
 31
0.0
  0
LINE
  5
93
100
AcDbEntity
  8
SW
100
AcDbLine
 10
39.170124
 20
35.850622
 30
0.0
 11
40.829876
 21
38.174274
 31
0.0
  0
LINE
  5
94
100
AcDbEntity
  8
SW
100
AcDbLine
 10
40.829876
 20
38.174274
 30
0.0
 11
43.153527
 21
36.846473
 31
0.0
  0
LINE
  5
95
100
AcDbEntity
  8
SW
100
AcDbLine
 10
43.153527
 20
36.846473
 30
0.0
 11
45.145228
 21
35.186722
 31
0.0
  0
LINE
  5
96
100
AcDbEntity
  8
SW
100
AcDbLine
 10
45.145228
 20
35.186722
 30
0.0
 11
45.477178
 21
33.858921
 31
0.0
  0
LINE
  5
97
100
AcDbEntity
  8
SW
100
AcDbLine
 10
45.477178
 20
33.858921
 30
0.0
 11
45.477178
 21
31.86722
 31
0.0
  0
LINE
  5
98
100
AcDbEntity
  8
SW
100
AcDbLine
 10
45.477178
 20
31.86722
 30
0.0
 11
45.809129
 21
29.211618
 31
0.0
  0
LINE
  5
99
100
AcDbEntity
  8
SW
100
AcDbLine
 10
45.809129
 20
29.211618
 30
0.0
 11
46.141079
 21
27.219917
 31
0.0
  0
LINE
  5
9A
100
AcDbEntity
  8
SW
100
AcDbLine
 10
46.141079
 20
27.219917
 30
0.0
 11
47.136929
 21
25.560166
 31
0.0
  0
LINE
  5
9B
100
AcDbEntity
  8
SW
100
AcDbLine
 10
47.136929
 20
25.560166
 30
0.0
 11
49.460581
 21
25.228216
 31
0.0
  0
LINE
  5
9C
100
AcDbEntity
  8
SW
100
AcDbLine
 10
49.460581
 20
25.228216
 30
0.0
 11
51.452282
 21
25.892116
 31
0.0
  0
LINE
  5
9D
100
AcDbEntity
  8
SW
100
AcDbLine
 10
51.452282
 20
25.892116
 30
0.0
 11
53.112033
 21
24.232365
 31
0.0
  0
LINE
  5
9E
100
AcDbEntity
  8
SW
100
AcDbLine
 10
53.112033
 20
24.232365
 30
0.0
 11
55.435685
 21
23.900415
 31
0.0
  0
LINE
  5
9F
100
AcDbEntity
  8
SW
100
AcDbLine
 10
55.435685
 20
23.900415
 30
0.0
 11
56.099585
 21
25.560166
 31
0.0
  0
LINE
  5
A0
100
AcDbEntity
  8
SW
100
AcDbLine
 10
56.099585
 20
25.560166
 30
0.0
 11
54.771784
 21
27.551867
 31
0.0
  0
LINE
  5
A1
100
AcDbEntity
  8
SW
100
AcDbLine
 10
54.771784
 20
27.551867
 30
0.0
 11
54.771784
 21
30.207469
 31
0.0
  0
LINE
  5
A2
100
AcDbEntity
  8
SW
100
AcDbLine
 10
54.771784
 20
30.207469
 30
0.0
 11
53.443983
 21
32.53112
 31
0.0
  0
LINE
  5
A3
100
AcDbEntity
  8
SW
100
AcDbLine
 10
53.443983
 20
32.53112
 30
0.0
 11
51.120332
 21
35.186722
 31
0.0
  0
LINE
  5
A4
100
AcDbEntity
  8
SW
100
AcDbLine
 10
51.120332
 20
35.186722
 30
0.0
 11
49.460581
 21
35.850622
 31
0.0
  0
LINE
  5
A5
100
AcDbEntity
  8
SW
100
AcDbLine
 10
49.460581
 20
35.850622
 30
0.0
 11
49.460581
 21
37.178423
 31
0.0
  0
LINE
  5
A6
100
AcDbEntity
  8
SW
100
AcDbLine
 10
49.460581
 20
37.178423
 30
0.0
 11
47.136929
 21
39.502075
 31
0.0
  0
LINE
  5
A7
100
AcDbEntity
  8
SW
100
AcDbLine
 10
47.136929
 20
39.502075
 30
0.0
 11
44.813278
 21
42.157676
 31
0.0
  0
LINE
  5
A8
100
AcDbEntity
  8
SW
100
AcDbLine
 10
44.813278
 20
42.157676
 30
0.0
 11
41.825726
 21
43.817427
 31
0.0
  0
LINE
  5
A9
100
AcDbEntity
  8
SW
100
AcDbLine
 10
41.825726
 20
43.817427
 30
0.0
 11
40.497925
 21
44.481328
 31
0.0
  0
LINE
  5
AA
100
AcDbEntity
  8
SW
100
AcDbLine
 10
40.497925
 20
44.481328
 30
0.0
 11
38.506224
 21
41.825726
 31
0.0
  0
LINE
  5
AB
100
AcDbEntity
  8
SW
100
AcDbLine
 10
38.506224
 20
41.825726
 30
0.0
 11
36.514523
 21
38.506224
 31
0.0
  0
LINE
  5
AC
100
AcDbEntity
  8
SW
100
AcDbLine
 10
36.514523
 20
38.506224
 30
0.0
 11
35.850622
 21
38.174274
 31
0.0
  0
LINE
  5
AD
100
AcDbEntity
  8
SW
100
AcDbLine
 10
45.477178
 20
30.207469
 30
0.0
 11
47.80083
 21
29.211618
 31
0.0
  0
LINE
  5
AE
100
AcDbEntity
  8
SW
100
AcDbLine
 10
47.80083
 20
29.211618
 30
0.0
 11
50.788382
 21
30.871369
 31
0.0
  0
LINE
  5
AF
100
AcDbEntity
  8
SW
100
AcDbLine
 10
46.473029
 20
29.211618
 30
0.0
 11
47.80083
 21
28.215768
 31
0.0
  0
LINE
  5
B0
100
AcDbEntity
  8
SW
100
AcDbLine
 10
47.80083
 20
28.215768
 30
0.0
 11
51.120332
 21
29.543568
 31
0.0
  0
LINE
  5
B1
100
AcDbEntity
  8
SW
100
AcDbLine
 10
46.473029
 20
27.883817
 30
0.0
 11
48.46473
 21
27.219917
 31
0.0
  0
LINE
  5
B2
100
AcDbEntity
  8
SW
100
AcDbLine
 10
48.46473
 20
27.219917
 30
0.0
 11
52.448133
 21
27.883817
 31
0.0
  0
LINE
  5
B3
100
AcDbEntity
  8
SW
100
AcDbLine
 10
19.917012
 20
15.26971
 30
0.0
 11
20.912863
 21
16.59751
 31
0.0
  0
LINE
  5
B4
100
AcDbEntity
  8
SW
100
AcDbLine
 10
17.593361
 20
16.59751
 30
0.0
 11
20.248963
 21
18.589212
 31
0.0
  0
LINE
  5
B5
100
AcDbEntity
  8
SW
100
AcDbLine
 10
13.941909
 20
48.79668
 30
0.0
 11
13.609959
 21
54.439834
 31
0.0
  0
LINE
  5
B6
100
AcDbEntity
  8
SW
100
AcDbLine
 10
13.609959
 20
54.439834
 30
0.0
 11
13.609959
 21
58.423237
 31
0.0
  0
LINE
  5
B7
100
AcDbEntity
  8
SW
100
AcDbLine
 10
13.609959
 20
58.423237
 30
0.0
 11
14.273859
 21
61.410788
 31
0.0
  0
LINE
  5
B8
100
AcDbEntity
  8
SW
100
AcDbLine
 10
14.273859
 20
61.410788
 30
0.0
 11
16.59751
 21
62.738589
 31
0.0
  0
LINE
  5
B9
100
AcDbEntity
  8
SW
100
AcDbLine
 10
16.59751
 20
62.738589
 30
0.0
 11
18.589212
 21
61.410788
 31
0.0
  0
LINE
  5
BA
100
AcDbEntity
  8
SW
100
AcDbLine
 10
18.589212
 20
61.410788
 30
0.0
 11
19.585062
 21
57.759336
 31
0.0
  0
LINE
  5
BB
100
AcDbEntity
  8
SW
100
AcDbLine
 10
19.585062
 20
57.759336
 30
0.0
 11
20.912863
 21
54.439834
 31
0.0
  0
LINE
  5
BC
100
AcDbEntity
  8
SW
100
AcDbLine
 10
20.912863
 20
54.439834
 30
0.0
 11
21.576763
 21
53.443983
 31
0.0
  0
LINE
  5
BD
100
AcDbEntity
  8
SW
100
AcDbLine
 10
27.883817
 20
53.443983
 30
0.0
 11
24.564315
 21
56.763485
 31
0.0
  0
LINE
  5
BE
100
AcDbEntity
  8
SW
100
AcDbLine
 10
24.564315
 20
56.763485
 30
0.0
 11
22.240664
 21
60.414938
 31
0.0
  0
LINE
  5
BF
100
AcDbEntity
  8
SW
100
AcDbLine
 10
23.568465
 20
58.423237
 30
0.0
 11
26.556017
 21
58.423237
 31
0.0
  0
LINE
  5
C0
100
AcDbEntity
  8
SW
100
AcDbLine
 10
26.556017
 20
58.423237
 30
0.0
 11
24.232365
 21
60.414938
 31
0.0
  0
LINE
  5
C1
100
AcDbEntity
  8
SW
100
AcDbLine
 10
24.232365
 20
60.414938
 30
0.0
 11
21.576763
 21
64.39834
 31
0.0
  0
LINE
  5
C2
100
AcDbEntity
  8
SW
100
AcDbLine
 10
19.253112
 20
60.414938
 30
0.0
 11
20.912863
 21
62.738589
 31
0.0
  0
LINE
  5
C3
100
AcDbEntity
  8
SW
100
AcDbLine
 10
20.912863
 20
62.738589
 30
0.0
 11
20.912863
 21
64.73029
 31
0.0
  0
LINE
  5
C4
100
AcDbEntity
  8
SW
100
AcDbLine
 10
20.912863
 20
64.73029
 30
0.0
 11
20.912863
 21
65.726141
 31
0.0
  0
LINE
  5
C5
100
AcDbEntity
  8
SW
100
AcDbLine
 10
20.912863
 20
65.726141
 30
0.0
 11
20.248963
 21
66.058091
 31
0.0
  0
LINE
  5
C6
100
AcDbEntity
  8
SW
100
AcDbLine
 10
20.248963
 20
66.058091
 30
0.0
 11
18.589212
 21
66.058091
 31
0.0
  0
LINE
  5
C7
100
AcDbEntity
  8
SW
100
AcDbLine
 10
18.589212
 20
66.058091
 30
0.0
 11
16.59751
 21
64.73029
 31
0.0
  0
LINE
  5
C8
100
AcDbEntity
  8
SW
100
AcDbLine
 10
16.59751
 20
64.73029
 30
0.0
 11
13.609959
 21
64.73029
 31
0.0
  0
LINE
  5
C9
100
AcDbEntity
  8
SW
100
AcDbLine
 10
13.609959
 20
64.73029
 30
0.0
 11
11.618257
 21
64.73029
 31
0.0
  0
LINE
  5
CA
100
AcDbEntity
  8
SW
100
AcDbLine
 10
11.618257
 20
64.73029
 30
0.0
 11
9.958506
 21
64.39834
 31
0.0
  0
LINE
  5
CB
100
AcDbEntity
  8
SW
100
AcDbLine
 10
9.958506
 20
64.39834
 30
0.0
 11
9.958506
 21
63.070539
 31
0.0
  0
LINE
  5
CC
100
AcDbEntity
  8
SW
100
AcDbLine
 10
9.958506
 20
63.070539
 30
0.0
 11
10.954357
 21
61.410788
 31
0.0
  0
LINE
  5
CD
100
AcDbEntity
  8
SW
100
AcDbLine
 10
10.954357
 20
61.410788
 30
0.0
 11
12.282158
 21
60.414938
 31
0.0
  0
LINE
  5
CE
100
AcDbEntity
  8
SW
100
AcDbLine
 10
12.282158
 20
60.414938
 30
0.0
 11
13.278008
 21
60.082988
 31
0.0
  0
LINE
  5
CF
100
AcDbEntity
  8
SW
100
AcDbLine
 10
25.228216
 20
59.419087
 30
0.0
 11
28.215768
 21
59.087137
 31
0.0
  0
LINE
  5
D0
100
AcDbEntity
  8
SW
100
AcDbLine
 10
28.215768
 20
59.087137
 30
0.0
 11
31.86722
 21
59.087137
 31
0.0
  0
LINE
  5
D1
100
AcDbEntity
  8
SW
100
AcDbLine
 10
31.86722
 20
59.087137
 30
0.0
 11
34.854772
 21
59.087137
 31
0.0
  0
LINE
  5
D2
100
AcDbEntity
  8
SW
100
AcDbLine
 10
34.854772
 20
59.087137
 30
0.0
 11
37.842324
 21
59.751037
 31
0.0
  0
LINE
  5
D3
100
AcDbEntity
  8
SW
100
AcDbLine
 10
37.842324
 20
59.751037
 30
0.0
 11
40.497925
 21
60.746888
 31
0.0
  0
LINE
  5
D4
100
AcDbEntity
  8
SW
100
AcDbLine
 10
40.497925
 20
60.746888
 30
0.0
 11
41.825726
 21
63.40249
 31
0.0
  0
LINE
  5
D5
100
AcDbEntity
  8
SW
100
AcDbLine
 10
41.825726
 20
63.40249
 30
0.0
 11
40.497925
 21
66.390041
 31
0.0
  0
LINE
  5
D6
100
AcDbEntity
  8
SW
100
AcDbLine
 10
40.497925
 20
66.390041
 30
0.0
 11
37.510373
 21
67.385892
 31
0.0
  0
LINE
  5
D7
100
AcDbEntity
  8
SW
100
AcDbLine
 10
37.510373
 20
67.385892
 30
0.0
 11
33.195021
 21
68.381743
 31
0.0
  0
LINE
  5
D8
100
AcDbEntity
  8
SW
100
AcDbLine
 10
33.195021
 20
68.381743
 30
0.0
 11
29.875519
 21
69.045643
 31
0.0
  0
LINE
  5
D9
100
AcDbEntity
  8
SW
100
AcDbLine
 10
29.875519
 20
69.045643
 30
0.0
 11
27.219917
 21
68.713693
 31
0.0
  0
LINE
  5
DA
100
AcDbEntity
  8
SW
100
AcDbLine
 10
27.219917
 20
68.713693
 30
0.0
 11
24.232365
 21
67.385892
 31
0.0
  0
LINE
  5
DB
100
AcDbEntity
  8
SW
100
AcDbLine
 10
24.232365
 20
67.385892
 30
0.0
 11
22.240664
 21
66.390041
 31
0.0
  0
LINE
  5
DC
100
AcDbEntity
  8
SW
100
AcDbLine
 10
22.240664
 20
66.390041
 30
0.0
 11
20.912863
 21
66.058091
 31
0.0
  0
LINE
  5
DD
100
AcDbEntity
  8
SW
100
AcDbLine
 10
18.921162
 20
66.721992
 30
0.0
 11
19.917012
 21
68.713693
 31
0.0
  0
LINE
  5
DE
100
AcDbEntity
  8
SW
100
AcDbLine
 10
19.917012
 20
68.713693
 30
0.0
 11
19.585062
 21
71.701245
 31
0.0
  0
LINE
  5
DF
100
AcDbEntity
  8
SW
100
AcDbLine
 10
19.585062
 20
71.701245
 30
0.0
 11
18.589212
 21
74.024896
 31
0.0
  0
LINE
  5
E0
100
AcDbEntity
  8
SW
100
AcDbLine
 10
18.589212
 20
74.024896
 30
0.0
 11
16.26556
 21
76.348548
 31
0.0
  0
LINE
  5
E1
100
AcDbEntity
  8
SW
100
AcDbLine
 10
16.26556
 20
76.348548
 30
0.0
 11
13.609959
 21
77.676349
 31
0.0
  0
LINE
  5
E2
100
AcDbEntity
  8
SW
100
AcDbLine
 10
13.609959
 20
77.676349
 30
0.0
 11
10.290456
 21
78.008299
 31
0.0
  0
LINE
  5
E3
100
AcDbEntity
  8
SW
100
AcDbLine
 10
10.290456
 20
78.008299
 30
0.0
 11
8.962656
 21
76.348548
 31
0.0
  0
LINE
  5
E4
100
AcDbEntity
  8
SW
100
AcDbLine
 10
8.962656
 20
76.348548
 30
0.0
 11
6.970954
 21
75.684647
 31
0.0
  0
LINE
  5
E5
100
AcDbEntity
  8
SW
100
AcDbLine
 10
6.970954
 20
75.684647
 30
0.0
 11
5.311203
 21
74.024896
 31
0.0
  0
LINE
  5
E6
100
AcDbEntity
  8
SW
100
AcDbLine
 10
5.311203
 20
74.024896
 30
0.0
 11
5.311203
 21
71.369295
 31
0.0
  0
LINE
  5
E7
100
AcDbEntity
  8
SW
100
AcDbLine
 10
5.311203
 20
71.369295
 30
0.0
 11
6.639004
 21
68.713693
 31
0.0
  0
LINE
  5
E8
100
AcDbEntity
  8
SW
100
AcDbLine
 10
6.639004
 20
68.713693
 30
0.0
 11
8.298755
 21
66.721992
 31
0.0
  0
LINE
  5
E9
100
AcDbEntity
  8
SW
100
AcDbLine
 10
8.298755
 20
66.721992
 30
0.0
 11
10.290456
 21
65.062241
 31
0.0
  0
LINE
  5
EA
100
AcDbEntity
  8
SW
100
AcDbLine
 10
8.962656
 20
76.016598
 30
0.0
 11
9.294606
 21
74.024896
 31
0.0
  0
LINE
  5
EB
100
AcDbEntity
  8
SW
100
AcDbLine
 10
9.294606
 20
74.024896
 30
0.0
 11
10.622407
 21
72.697095
 31
0.0
  0
LINE
  5
EC
100
AcDbEntity
  8
SW
100
AcDbLine
 10
10.622407
 20
72.697095
 30
0.0
 11
12.614108
 21
72.033195
 31
0.0
  0
LINE
  5
ED
100
AcDbEntity
  8
SW
100
AcDbLine
 10
30.871369
 20
64.73029
 30
0.0
 11
33.526971
 21
63.73444
 31
0.0
  0
LINE
  5
EE
100
AcDbEntity
  8
SW
100
AcDbLine
 10
33.526971
 20
63.73444
 30
0.0
 11
33.526971
 21
63.73444
 31
0.0
  0
LINE
  5
EF
100
AcDbEntity
  8
SW
100
AcDbLine
 10
33.526971
 20
63.73444
 30
0.0
 11
35.518672
 21
63.73444
 31
0.0
  0
LINE
  5
F0
100
AcDbEntity
  8
SW
100
AcDbLine
 10
35.518672
 20
63.73444
 30
0.0
 11
37.510373
 21
64.39834
 31
0.0
  0
LINE
  5
F1
100
AcDbEntity
  8
SW
100
AcDbLine
 10
37.510373
 20
64.39834
 30
0.0
 11
38.838174
 21
65.394191
 31
0.0
  0
LINE
  5
F2
100
AcDbEntity
  8
SW
100
AcDbLine
 10
38.838174
 20
65.394191
 30
0.0
 11
37.510373
 21
67.385892
 31
0.0
  0
LINE
  5
F3
100
AcDbEntity
  8
SW
100
AcDbLine
 10
37.510373
 20
67.385892
 30
0.0
 11
34.190871
 21
68.049793
 31
0.0
  0
LINE
  5
F4
100
AcDbEntity
  8
SW
100
AcDbLine
 10
23.568465
 20
13.278008
 30
0.0
 11
23.568465
 21
16.59751
 31
0.0
  0
LINE
  5
F5
100
AcDbEntity
  8
SW
100
AcDbLine
 10
23.900415
 20
10.290456
 30
0.0
 11
34.190871
 21
6.307054
 31
0.0
  0
LINE
  5
F6
100
AcDbEntity
  8
SW
100
AcDbLine
 10
26.556017
 20
8.962656
 30
0.0
 11
29.211618
 21
2.655602
 31
0.0
  0
LINE
  5
F7
100
AcDbEntity
  8
SW
100
AcDbLine
 10
29.211618
 20
2.655602
 30
0.0
 11
33.195021
 21
0.6639
 31
0.0
  0
LINE
  5
F8
100
AcDbEntity
  8
SW
100
AcDbLine
 10
33.195021
 20
0.6639
 30
0.0
 11
35.518672
 21
0.6639
 31
0.0
  0
LINE
  5
F9
100
AcDbEntity
  8
SW
100
AcDbLine
 10
35.518672
 20
0.6639
 30
0.0
 11
37.510373
 21
2.655602
 31
0.0
  0
LINE
  5
FA
100
AcDbEntity
  8
SW
100
AcDbLine
 10
37.510373
 20
2.655602
 30
0.0
 11
35.850622
 21
6.307054
 31
0.0
  0
LINE
  5
FB
100
AcDbEntity
  8
SW
100
AcDbLine
 10
13.609959
 20
36.182573
 30
0.0
 11
19.253112
 21
35.850622
 31
0.0
  0
LINE
  5
FC
100
AcDbEntity
  8
SW
100
AcDbLine
 10
19.253112
 20
35.850622
 30
0.0
 11
22.572614
 21
35.518672
 31
0.0
  0
LINE
  5
FD
100
AcDbEntity
  8
SW
100
AcDbLine
 10
19.585062
 20
38.506224
 30
0.0
 11
16.59751
 21
42.489627
 31
0.0
  0
LINE
  5
FE
100
AcDbEntity
  8
SW
100
AcDbLine
 10
16.59751
 20
42.489627
 30
0.0
 11
14.605809
 21
45.477178
 31
0.0
  0
LINE
  5
FF
100
AcDbEntity
  8
SW
100
AcDbLine
 10
14.605809
 20
45.477178
 30
0.0
 11
13.941909
 21
48.79668
 31
0.0
  0
LINE
  5
100
100
AcDbEntity
  8
SW
100
AcDbLine
 10
33.195021
 20
47.46888
 30
0.0
 11
27.883817
 21
53.443983
 31
0.0
  0
LINE
  5
101
100
AcDbEntity
  8
SW
100
AcDbLine
 10
32.53112
 20
30.207469
 30
0.0
 11
31.86722
 21
35.186722
 31
0.0
  0
LINE
  5
102
100
AcDbEntity
  8
SW
100
AcDbLine
 10
31.86722
 20
35.186722
 30
0.0
 11
30.539419
 21
42.157676
 31
0.0
  0
LINE
  5
103
100
AcDbEntity
  8
SW
100
AcDbLine
 10
30.539419
 20
42.157676
 30
0.0
 11
26.556017
 21
48.46473
 31
0.0
  0
LWPOLYLINE
  5
10B
100
AcDbEntity
  8
SW
100
AcDbPolyline
 90
        4
 70
     1
 43
0.0
 10
0.0
 20
80.0
 10
56.763485
 20
80.0
 10
56.763485
 20
0.0
 10
0.0
 20
0.0
  0
ENDSEC
  0
SECTION
  2
OBJECTS
  0
DICTIONARY
  5
C
100
AcDbDictionary
  3
ACAD_GROUP
350
D
  3
ACAD_MLINESTYLE
350
1A
  3
ACDBVARIABLEDICTIONARY
350
2F
  0
DICTIONARY
  5
D
102
{ACAD_REACTORS
330
C
102
}
100
AcDbDictionary
  0
DICTIONARY
  5
1A
102
{ACAD_REACTORS
330
C
102
}
100
AcDbDictionary
  3
STANDARD
350
1B
  0
DICTIONARY
  5
2F
102
{ACAD_REACTORS
330
C
102
}
100
AcDbDictionary
  3
DIMADEC
350
30
  0
MLINESTYLE
  5
1B
102
{ACAD_REACTORS
330
1A
102
}
100
AcDbMlineStyle
  2
STANDARD
 70
     0
  3

 62
   256
 51
90.0
 52
90.0
 71
     2
 49
0.5
 62
   256
  6
BYLAYER
 49
-0.5
 62
   256
  6
BYLAYER
  0
DICTIONARYVAR
  5
30
102
{ACAD_REACTORS
330
2F
102
}
100
DictionaryVariables
280
     0
  1
0
  0
ENDSEC
  0
EOF
