  0
SECTION
  2
HEADER
  9
$ACADVER
  1
AC1014
  9
$ACADMAINTVER
 70
     0
  9
$DWGCODEPAGE
  3
ANSI_1252
  9
$INSBASE
 10
0.0
 20
0.0
 30
0.0
  9
$EXTMIN
 10
0.0
 20
0.0
 30
0.0
  9
$EXTMAX
 10
400.0
 20
400.0
 30
0.0
  9
$LIMMIN
 10
0.0
 20
0.0
  9
$LIMMAX
 10
420.0
 20
297.0
  9
$ORTHOMODE
 70
     0
  9
$REGENMODE
 70
     1
  9
$FILLMODE
 70
     1
  9
$QTEXTMODE
 70
     0
  9
$MIRRTEXT
 70
     1
  9
$DRAGMODE
 70
     2
  9
$LTSCALE
 40
1.0
  9
$OSMODE
 70
     0
  9
$ATTMODE
 70
     1
  9
$TEXTSIZE
 40
2.5
  9
$TRACEWID
 40
1.0
  9
$TEXTSTYLE
  7
STANDARD
  9
$CLAYER
  8
0
  9
$CELTYPE
  6
BYLAYER
  9
$CECOLOR
 62
   256
  9
$CELTSCALE
 40
1.0
  9
$DELOBJ
 70
     1
  9
$DISPSILH
 70
     0
  9
$DIMSCALE
 40
1.0
  9
$DIMASZ
 40
2.5
  9
$DIMEXO
 40
0.625
  9
$DIMDLI
 40
3.75
  9
$DIMRND
 40
0.0
  9
$DIMDLE
 40
0.0
  9
$DIMEXE
 40
1.25
  9
$DIMTP
 40
0.0
  9
$DIMTM
 40
0.0
  9
$DIMTXT
 40
2.5
  9
$DIMCEN
 40
2.5
  9
$DIMTSZ
 40
0.0
  9
$DIMTOL
 70
     0
  9
$DIMLIM
 70
     0
  9
$DIMTIH
 70
     0
  9
$DIMTOH
 70
     0
  9
$DIMSE1
 70
     0
  9
$DIMSE2
 70
     0
  9
$DIMTAD
 70
     1
  9
$DIMZIN
 70
     8
  9
$DIMBLK
  1

  9
$DIMASO
 70
     1
  9
$DIMSHO
 70
     1
  9
$DIMPOST
  1

  9
$DIMAPOST
  1

  9
$DIMALT
 70
     0
  9
$DIMALTD
 70
     4
  9
$DIMALTF
 40
0.0394
  9
$DIMLFAC
 40
1.0
  9
$DIMTOFL
 70
     1
  9
$DIMTVP
 40
0.0
  9
$DIMTIX
 70
     0
  9
$DIMSOXD
 70
     0
  9
$DIMSAH
 70
     0
  9
$DIMBLK1
  1

  9
$DIMBLK2
  1

  9
$DIMSTYLE
  2
STANDARD
  9
$DIMCLRD
 70
     0
  9
$DIMCLRE
 70
     0
  9
$DIMCLRT
 70
     0
  9
$DIMTFAC
 40
1.0
  9
$DIMGAP
 40
0.625
  9
$DIMJUST
 70
     0
  9
$DIMSD1
 70
     0
  9
$DIMSD2
 70
     0
  9
$DIMTOLJ
 70
     1
  9
$DIMTZIN
 70
     0
  9
$DIMALTZ
 70
     0
  9
$DIMALTTZ
 70
     0
  9
$DIMFIT
 70
     3
  9
$DIMUPT
 70
     0
  9
$DIMUNIT
 70
     8
  9
$DIMDEC
 70
     4
  9
$DIMTDEC
 70
     4
  9
$DIMALTU
 70
     8
  9
$DIMALTTD
 70
     4
  9
$DIMTXSTY
  7
STANDARD
  9
$DIMAUNIT
 70
     0
  9
$LUNITS
 70
     2
  9
$LUPREC
 70
     4
  9
$SKETCHINC
 40
1.0
  9
$FILLETRAD
 40
10.0
  9
$AUNITS
 70
     0
  9
$AUPREC
 70
     0
  9
$MENU
  1
acad
  9
$ELEVATION
 40
0.0
  9
$PELEVATION
 40
0.0
  9
$THICKNESS
 40
0.0
  9
$LIMCHECK
 70
     0
  9
$BLIPMODE
 70
     0
  9
$CHAMFERA
 40
10.0
  9
$CHAMFERB
 40
10.0
  9
$CHAMFERC
 40
20.0
  9
$CHAMFERD
 40
0.0
  9
$SKPOLY
 70
     0
  9
$TDCREATE
 40
2454667.583632083
  9
$TDUPDATE
 40
2454794.544452824
  9
$TDINDWG
 40
0.2738444444
  9
$TDUSRTIMER
 40
0.2738444444
  9
$USRTIMER
 70
     1
  9
$ANGBASE
 50
0.0
  9
$ANGDIR
 70
     0
  9
$PDMODE
 70
     0
  9
$PDSIZE
 40
0.0
  9
$PLINEWID
 40
0.0
  9
$COORDS
 70
     1
  9
$SPLFRAME
 70
     0
  9
$SPLINETYPE
 70
     6
  9
$SPLINESEGS
 70
     8
  9
$ATTDIA
 70
     0
  9
$ATTREQ
 70
     1
  9
$HANDLING
 70
     1
  9
$HANDSEED
  5
EE
  9
$SURFTAB1
 70
     6
  9
$SURFTAB2
 70
     6
  9
$SURFTYPE
 70
     6
  9
$SURFU
 70
     6
  9
$SURFV
 70
     6
  9
$UCSNAME
  2

  9
$UCSORG
 10
0.0
 20
0.0
 30
0.0
  9
$UCSXDIR
 10
1.0
 20
0.0
 30
0.0
  9
$UCSYDIR
 10
0.0
 20
1.0
 30
0.0
  9
$PUCSNAME
  2

  9
$PUCSORG
 10
0.0
 20
0.0
 30
0.0
  9
$PUCSXDIR
 10
1.0
 20
0.0
 30
0.0
  9
$PUCSYDIR
 10
0.0
 20
1.0
 30
0.0
  9
$USERI1
 70
     0
  9
$USERI2
 70
     0
  9
$USERI3
 70
     0
  9
$USERI4
 70
     0
  9
$USERI5
 70
     0
  9
$USERR1
 40
0.0
  9
$USERR2
 40
0.0
  9
$USERR3
 40
0.0
  9
$USERR4
 40
0.0
  9
$USERR5
 40
0.0
  9
$WORLDVIEW
 70
     1
  9
$SHADEDGE
 70
     3
  9
$SHADEDIF
 70
    70
  9
$TILEMODE
 70
     1
  9
$MAXACTVP
 70
    48
  9
$PINSBASE
 10
0.0
 20
0.0
 30
0.0
  9
$PLIMCHECK
 70
     0
  9
$PEXTMIN
 10
1.000000E+20
 20
1.000000E+20
 30
1.000000E+20
  9
$PEXTMAX
 10
-1.000000E+20
 20
-1.000000E+20
 30
-1.000000E+20
  9
$PLIMMIN
 10
0.0
 20
0.0
  9
$PLIMMAX
 10
420.0
 20
297.0
  9
$UNITMODE
 70
     0
  9
$VISRETAIN
 70
     1
  9
$PLINEGEN
 70
     0
  9
$PSLTSCALE
 70
     1
  9
$TREEDEPTH
 70
  3020
  9
$PICKSTYLE
 70
     1
  9
$CMLSTYLE
  2
STANDARD
  9
$CMLJUST
 70
     0
  9
$CMLSCALE
 40
20.0
  9
$PROXYGRAPHICS
 70
     1
  9
$MEASUREMENT
 70
     1
  0
ENDSEC
  0
SECTION
  2
CLASSES
  0
CLASS
  1
LWPOLYLINE
  2
AcDbPolyline
  3
"AutoCAD"
 90
        0
280
     0
281
     1
  0
ENDSEC
  0
SECTION
  2
TABLES
  0
TABLE
  2
VPORT
  5
8
100
AcDbSymbolTable
 70
     1
  0
VPORT
  5
EA
100
AcDbSymbolTableRecord
100
AcDbViewportTableRecord
  2
*ACTIVE
 70
     0
 10
0.0
 20
0.0
 11
1.0
 21
1.0
 12
333.229733
 22
200.001634
 13
0.0
 23
0.0
 14
1.0
 24
1.0
 15
10.0
 25
10.0
 16
0.0
 26
0.0
 36
1.0
 17
0.0
 27
0.0
 37
0.0
 40
466.167268
 41
1.4375
 42
50.0
 43
0.0
 44
0.0
 50
0.0
 51
0.0
 71
     0
 72
   100
 73
     1
 74
     1
 75
     1
 76
     0
 77
     0
 78
     0
  0
ENDTAB
  0
TABLE
  2
LTYPE
  5
5
100
AcDbSymbolTable
 70
     1
  0
LTYPE
  5
12
100
AcDbSymbolTableRecord
100
AcDbLinetypeTableRecord
  2
BYBLOCK
 70
     0
  3

 72
    65
 73
     0
 40
0.0
  0
LTYPE
  5
13
100
AcDbSymbolTableRecord
100
AcDbLinetypeTableRecord
  2
BYLAYER
 70
     0
  3

 72
    65
 73
     0
 40
0.0
  0
LTYPE
  5
14
100
AcDbSymbolTableRecord
100
AcDbLinetypeTableRecord
  2
CONTINUOUS
 70
     0
  3
Solid line
 72
    65
 73
     0
 40
0.0
  0
ENDTAB
  0
TABLE
  2
LAYER
  5
2
100
AcDbSymbolTable
 70
     3
  0
LAYER
  5
E
100
AcDbSymbolTableRecord
100
AcDbLayerTableRecord
  2
0
 70
     0
 62
     7
  6
CONTINUOUS
  0
LAYER
  5
A9
100
AcDbSymbolTableRecord
100
AcDbLayerTableRecord
  2
H
 70
     0
 62
     7
  6
CONTINUOUS
  0
LAYER
  5
AA
100
AcDbSymbolTableRecord
100
AcDbLayerTableRecord
  2
M
 70
     0
 62
     7
  6
CONTINUOUS
  0
ENDTAB
  0
TABLE
  2
STYLE
  5
3
100
AcDbSymbolTable
 70
     1
  0
STYLE
  5
F
100
AcDbSymbolTableRecord
100
AcDbTextStyleTableRecord
  2
STANDARD
 70
     0
 40
0.0
 41
1.0
 50
0.0
 71
     0
 42
2.5
  3
txt
  4

  0
ENDTAB
  0
TABLE
  2
VIEW
  5
6
100
AcDbSymbolTable
 70
     0
  0
ENDTAB
  0
TABLE
  2
UCS
  5
7
100
AcDbSymbolTable
 70
     0
  0
ENDTAB
  0
TABLE
  2
APPID
  5
9
100
AcDbSymbolTable
 70
     1
  0
APPID
  5
10
100
AcDbSymbolTableRecord
100
AcDbRegAppTableRecord
  2
ACAD
 70
     0
  0
ENDTAB
  0
TABLE
  2
DIMSTYLE
  5
A
100
AcDbSymbolTable
 70
     1
  0
DIMSTYLE
105
1D
100
AcDbSymbolTableRecord
100
AcDbDimStyleTableRecord
  2
STANDARD
 70
     0
  3

  4

  5

  6

  7

 40
1.0
 41
0.18
 42
0.0625
 43
0.38
 44
0.18
 45
0.0
 46
0.0
 47
0.0
 48
0.0
140
0.18
141
0.09
142
0.0
143
25.4
144
1.0
145
0.0
146
1.0
147
0.09
 71
     0
 72
     0
 73
     1
 74
     1
 75
     0
 76
     0
 77
     0
 78
     0
170
     0
171
     2
172
     0
173
     0
174
     0
175
     0
176
     0
177
     0
178
     0
270
     2
271
     4
272
     4
273
     2
274
     2
340
F
275
     0
280
     0
281
     0
282
     0
283
     1
284
     0
285
     0
286
     0
287
     3
288
     0
  0
ENDTAB
  0
TABLE
  2
BLOCK_RECORD
  5
1
100
AcDbSymbolTable
 70
     0
  0
BLOCK_RECORD
  5
18
100
AcDbSymbolTableRecord
100
AcDbBlockTableRecord
  2
*MODEL_SPACE
  0
BLOCK_RECORD
  5
15
100
AcDbSymbolTableRecord
100
AcDbBlockTableRecord
  2
*PAPER_SPACE
  0
ENDTAB
  0
ENDSEC
  0
SECTION
  2
BLOCKS
  0
BLOCK
  5
19
100
AcDbEntity
  8
0
100
AcDbBlockBegin
  2
*MODEL_SPACE
 70
     0
 10
0.0
 20
0.0
 30
0.0
  3
*MODEL_SPACE
  1

  0
ENDBLK
  5
1A
100
AcDbEntity
  8
0
100
AcDbBlockEnd
  0
BLOCK
  5
16
100
AcDbEntity
 67
     1
  8
0
100
AcDbBlockBegin
  2
*PAPER_SPACE
 70
     0
 10
0.0
 20
0.0
 30
0.0
  3
*PAPER_SPACE
  1

  0
ENDBLK
  5
17
100
AcDbEntity
 67
     1
  8
0
100
AcDbBlockEnd
  0
ENDSEC
  0
SECTION
  2
ENTITIES
  0
CIRCLE
  5
22
100
AcDbEntity
  8
M
100
AcDbCircle
 10
200.0
 20
200.0
 30
0.0
 40
175.0
  0
CIRCLE
  5
26
100
AcDbEntity
  8
H
100
AcDbCircle
 10
200.0
 20
200.0
 30
0.0
 40
125.0
  0
LINE
  5
28
100
AcDbEntity
  8
H
100
AcDbLine
 10
200.0
 20
200.0
 30
0.0
 11
325.0
 21
200.0
 31
0.0
  0
LINE
  5
29
100
AcDbEntity
  8
H
100
AcDbLine
 10
200.0
 20
200.0
 30
0.0
 11
323.930608
 21
216.315774
 31
0.0
  0
LINE
  5
2A
100
AcDbEntity
  8
H
100
AcDbLine
 10
200.0
 20
200.0
 30
0.0
 11
320.740728
 21
232.352381
 31
0.0
  0
LINE
  5
2B
100
AcDbEntity
  8
H
100
AcDbLine
 10
200.0
 20
200.0
 30
0.0
 11
315.484942
 21
247.835429
 31
0.0
  0
LINE
  5
2C
100
AcDbEntity
  8
H
100
AcDbLine
 10
200.0
 20
200.0
 30
0.0
 11
308.253175
 21
262.5
 31
0.0
  0
LINE
  5
2D
100
AcDbEntity
  8
H
100
AcDbLine
 10
200.0
 20
200.0
 30
0.0
 11
299.169168
 21
276.095179
 31
0.0
  0
LINE
  5
2E
100
AcDbEntity
  8
H
100
AcDbLine
 10
200.0
 20
200.0
 30
0.0
 11
288.388348
 21
288.388348
 31
0.0
  0
LINE
  5
2F
100
AcDbEntity
  8
H
100
AcDbLine
 10
200.0
 20
200.0
 30
0.0
 11
276.095179
 21
299.169168
 31
0.0
  0
LINE
  5
30
100
AcDbEntity
  8
H
100
AcDbLine
 10
200.0
 20
200.0
 30
0.0
 11
262.5
 21
308.253175
 31
0.0
  0
LINE
  5
31
100
AcDbEntity
  8
H
100
AcDbLine
 10
200.0
 20
200.0
 30
0.0
 11
247.835429
 21
315.484942
 31
0.0
  0
LINE
  5
32
100
AcDbEntity
  8
H
100
AcDbLine
 10
200.0
 20
200.0
 30
0.0
 11
232.352381
 21
320.740728
 31
0.0
  0
LINE
  5
33
100
AcDbEntity
  8
H
100
AcDbLine
 10
200.0
 20
200.0
 30
0.0
 11
216.315774
 21
323.930608
 31
0.0
  0
LINE
  5
34
100
AcDbEntity
  8
H
100
AcDbLine
 10
200.0
 20
200.0
 30
0.0
 11
200.0
 21
325.0
 31
0.0
  0
LINE
  5
35
100
AcDbEntity
  8
H
100
AcDbLine
 10
200.0
 20
200.0
 30
0.0
 11
183.684226
 21
323.930608
 31
0.0
  0
LINE
  5
36
100
AcDbEntity
  8
H
100
AcDbLine
 10
200.0
 20
200.0
 30
0.0
 11
167.647619
 21
320.740728
 31
0.0
  0
LINE
  5
37
100
AcDbEntity
  8
H
100
AcDbLine
 10
200.0
 20
200.0
 30
0.0
 11
152.164571
 21
315.484942
 31
0.0
  0
LINE
  5
38
100
AcDbEntity
  8
H
100
AcDbLine
 10
200.0
 20
200.0
 30
0.0
 11
137.5
 21
308.253175
 31
0.0
  0
LINE
  5
39
100
AcDbEntity
  8
H
100
AcDbLine
 10
200.0
 20
200.0
 30
0.0
 11
123.904821
 21
299.169168
 31
0.0
  0
LINE
  5
3A
100
AcDbEntity
  8
H
100
AcDbLine
 10
200.0
 20
200.0
 30
0.0
 11
111.611652
 21
288.388348
 31
0.0
  0
LINE
  5
3B
100
AcDbEntity
  8
H
100
AcDbLine
 10
200.0
 20
200.0
 30
0.0
 11
100.830832
 21
276.095179
 31
0.0
  0
LINE
  5
3C
100
AcDbEntity
  8
H
100
AcDbLine
 10
200.0
 20
200.0
 30
0.0
 11
91.746825
 21
262.5
 31
0.0
  0
LINE
  5
3D
100
AcDbEntity
  8
H
100
AcDbLine
 10
200.0
 20
200.0
 30
0.0
 11
84.515058
 21
247.835429
 31
0.0
  0
LINE
  5
3E
100
AcDbEntity
  8
H
100
AcDbLine
 10
200.0
 20
200.0
 30
0.0
 11
79.259272
 21
232.352381
 31
0.0
  0
LINE
  5
3F
100
AcDbEntity
  8
H
100
AcDbLine
 10
200.0
 20
200.0
 30
0.0
 11
76.069392
 21
216.315774
 31
0.0
  0
LINE
  5
40
100
AcDbEntity
  8
H
100
AcDbLine
 10
200.0
 20
200.0
 30
0.0
 11
75.0
 21
200.0
 31
0.0
  0
LINE
  5
41
100
AcDbEntity
  8
H
100
AcDbLine
 10
200.0
 20
200.0
 30
0.0
 11
76.069392
 21
183.684226
 31
0.0
  0
LINE
  5
42
100
AcDbEntity
  8
H
100
AcDbLine
 10
200.0
 20
200.0
 30
0.0
 11
79.259272
 21
167.647619
 31
0.0
  0
LINE
  5
43
100
AcDbEntity
  8
H
100
AcDbLine
 10
200.0
 20
200.0
 30
0.0
 11
84.515058
 21
152.164571
 31
0.0
  0
LINE
  5
44
100
AcDbEntity
  8
H
100
AcDbLine
 10
200.0
 20
200.0
 30
0.0
 11
91.746825
 21
137.5
 31
0.0
  0
LINE
  5
45
100
AcDbEntity
  8
H
100
AcDbLine
 10
200.0
 20
200.0
 30
0.0
 11
100.830832
 21
123.904821
 31
0.0
  0
LINE
  5
46
100
AcDbEntity
  8
H
100
AcDbLine
 10
200.0
 20
200.0
 30
0.0
 11
111.611652
 21
111.611652
 31
0.0
  0
LINE
  5
47
100
AcDbEntity
  8
H
100
AcDbLine
 10
200.0
 20
200.0
 30
0.0
 11
123.904821
 21
100.830832
 31
0.0
  0
LINE
  5
48
100
AcDbEntity
  8
H
100
AcDbLine
 10
200.0
 20
200.0
 30
0.0
 11
137.5
 21
91.746825
 31
0.0
  0
LINE
  5
49
100
AcDbEntity
  8
H
100
AcDbLine
 10
200.0
 20
200.0
 30
0.0
 11
152.164571
 21
84.515058
 31
0.0
  0
LINE
  5
4A
100
AcDbEntity
  8
H
100
AcDbLine
 10
200.0
 20
200.0
 30
0.0
 11
167.647619
 21
79.259272
 31
0.0
  0
LINE
  5
4B
100
AcDbEntity
  8
H
100
AcDbLine
 10
200.0
 20
200.0
 30
0.0
 11
183.684226
 21
76.069392
 31
0.0
  0
LINE
  5
4C
100
AcDbEntity
  8
H
100
AcDbLine
 10
200.0
 20
200.0
 30
0.0
 11
200.0
 21
75.0
 31
0.0
  0
LINE
  5
4D
100
AcDbEntity
  8
H
100
AcDbLine
 10
200.0
 20
200.0
 30
0.0
 11
216.315774
 21
76.069392
 31
0.0
  0
LINE
  5
4E
100
AcDbEntity
  8
H
100
AcDbLine
 10
200.0
 20
200.0
 30
0.0
 11
232.352381
 21
79.259272
 31
0.0
  0
LINE
  5
4F
100
AcDbEntity
  8
H
100
AcDbLine
 10
200.0
 20
200.0
 30
0.0
 11
247.835429
 21
84.515058
 31
0.0
  0
LINE
  5
50
100
AcDbEntity
  8
H
100
AcDbLine
 10
200.0
 20
200.0
 30
0.0
 11
262.5
 21
91.746825
 31
0.0
  0
LINE
  5
51
100
AcDbEntity
  8
H
100
AcDbLine
 10
200.0
 20
200.0
 30
0.0
 11
276.095179
 21
100.830832
 31
0.0
  0
LINE
  5
52
100
AcDbEntity
  8
H
100
AcDbLine
 10
200.0
 20
200.0
 30
0.0
 11
288.388348
 21
111.611652
 31
0.0
  0
LINE
  5
53
100
AcDbEntity
  8
H
100
AcDbLine
 10
200.0
 20
200.0
 30
0.0
 11
299.169168
 21
123.904821
 31
0.0
  0
LINE
  5
54
100
AcDbEntity
  8
H
100
AcDbLine
 10
200.0
 20
200.0
 30
0.0
 11
308.253175
 21
137.5
 31
0.0
  0
LINE
  5
55
100
AcDbEntity
  8
H
100
AcDbLine
 10
200.0
 20
200.0
 30
0.0
 11
315.484942
 21
152.164571
 31
0.0
  0
LINE
  5
56
100
AcDbEntity
  8
H
100
AcDbLine
 10
200.0
 20
200.0
 30
0.0
 11
320.740728
 21
167.647619
 31
0.0
  0
LINE
  5
57
100
AcDbEntity
  8
H
100
AcDbLine
 10
200.0
 20
200.0
 30
0.0
 11
323.930608
 21
183.684226
 31
0.0
  0
LINE
  5
58
100
AcDbEntity
  8
M
100
AcDbLine
 10
200.0
 20
200.0
 30
0.0
 11
375.0
 21
200.0
 31
0.0
  0
LINE
  5
59
100
AcDbEntity
  8
M
100
AcDbLine
 10
200.0
 20
200.0
 30
0.0
 11
374.041332
 21
218.292481
 31
0.0
  0
LINE
  5
5A
100
AcDbEntity
  8
M
100
AcDbLine
 10
200.0
 20
200.0
 30
0.0
 11
371.17583
 21
236.384546
 31
0.0
  0
LINE
  5
5B
100
AcDbEntity
  8
M
100
AcDbLine
 10
200.0
 20
200.0
 30
0.0
 11
366.43489
 21
254.077974
 31
0.0
  0
LINE
  5
5C
100
AcDbEntity
  8
M
100
AcDbLine
 10
200.0
 20
200.0
 30
0.0
 11
359.870455
 21
271.178913
 31
0.0
  0
LINE
  5
5D
100
AcDbEntity
  8
M
100
AcDbLine
 10
200.0
 20
200.0
 30
0.0
 11
351.554446
 21
287.5
 31
0.0
  0
LINE
  5
5E
100
AcDbEntity
  8
M
100
AcDbLine
 10
200.0
 20
200.0
 30
0.0
 11
341.577974
 21
302.862419
 31
0.0
  0
LINE
  5
5F
100
AcDbEntity
  8
M
100
AcDbLine
 10
200.0
 20
200.0
 30
0.0
 11
330.050344
 21
317.097856
 31
0.0
  0
LINE
  5
60
100
AcDbEntity
  8
M
100
AcDbLine
 10
200.0
 20
200.0
 30
0.0
 11
317.097856
 21
330.050344
 31
0.0
  0
LINE
  5
61
100
AcDbEntity
  8
M
100
AcDbLine
 10
200.0
 20
200.0
 30
0.0
 11
302.862419
 21
341.577974
 31
0.0
  0
LINE
  5
62
100
AcDbEntity
  8
M
100
AcDbLine
 10
200.0
 20
200.0
 30
0.0
 11
287.5
 21
351.554446
 31
0.0
  0
LINE
  5
63
100
AcDbEntity
  8
M
100
AcDbLine
 10
200.0
 20
200.0
 30
0.0
 11
271.178913
 21
359.870455
 31
0.0
  0
LINE
  5
64
100
AcDbEntity
  8
M
100
AcDbLine
 10
200.0
 20
200.0
 30
0.0
 11
254.077974
 21
366.43489
 31
0.0
  0
LINE
  5
65
100
AcDbEntity
  8
M
100
AcDbLine
 10
200.0
 20
200.0
 30
0.0
 11
236.384546
 21
371.17583
 31
0.0
  0
LINE
  5
66
100
AcDbEntity
  8
M
100
AcDbLine
 10
200.0
 20
200.0
 30
0.0
 11
218.292481
 21
374.041332
 31
0.0
  0
LINE
  5
67
100
AcDbEntity
  8
M
100
AcDbLine
 10
200.0
 20
200.0
 30
0.0
 11
200.0
 21
375.0
 31
0.0
  0
LINE
  5
68
100
AcDbEntity
  8
M
100
AcDbLine
 10
200.0
 20
200.0
 30
0.0
 11
181.707519
 21
374.041332
 31
0.0
  0
LINE
  5
69
100
AcDbEntity
  8
M
100
AcDbLine
 10
200.0
 20
200.0
 30
0.0
 11
163.615454
 21
371.17583
 31
0.0
  0
LINE
  5
6A
100
AcDbEntity
  8
M
100
AcDbLine
 10
200.0
 20
200.0
 30
0.0
 11
145.922026
 21
366.43489
 31
0.0
  0
LINE
  5
6B
100
AcDbEntity
  8
M
100
AcDbLine
 10
200.0
 20
200.0
 30
0.0
 11
128.821087
 21
359.870455
 31
0.0
  0
LINE
  5
6C
100
AcDbEntity
  8
M
100
AcDbLine
 10
200.0
 20
200.0
 30
0.0
 11
112.5
 21
351.554446
 31
0.0
  0
LINE
  5
6D
100
AcDbEntity
  8
M
100
AcDbLine
 10
200.0
 20
200.0
 30
0.0
 11
97.137581
 21
341.577974
 31
0.0
  0
LINE
  5
6E
100
AcDbEntity
  8
M
100
AcDbLine
 10
200.0
 20
200.0
 30
0.0
 11
82.902144
 21
330.050344
 31
0.0
  0
LINE
  5
6F
100
AcDbEntity
  8
M
100
AcDbLine
 10
200.0
 20
200.0
 30
0.0
 11
69.949656
 21
317.097856
 31
0.0
  0
LINE
  5
70
100
AcDbEntity
  8
M
100
AcDbLine
 10
200.0
 20
200.0
 30
0.0
 11
58.422026
 21
302.862419
 31
0.0
  0
LINE
  5
71
100
AcDbEntity
  8
M
100
AcDbLine
 10
200.0
 20
200.0
 30
0.0
 11
48.445554
 21
287.5
 31
0.0
  0
LINE
  5
72
100
AcDbEntity
  8
M
100
AcDbLine
 10
200.0
 20
200.0
 30
0.0
 11
40.129545
 21
271.178913
 31
0.0
  0
LINE
  5
73
100
AcDbEntity
  8
M
100
AcDbLine
 10
200.0
 20
200.0
 30
0.0
 11
33.56511
 21
254.077974
 31
0.0
  0
LINE
  5
74
100
AcDbEntity
  8
M
100
AcDbLine
 10
200.0
 20
200.0
 30
0.0
 11
28.82417
 21
236.384546
 31
0.0
  0
LINE
  5
75
100
AcDbEntity
  8
M
100
AcDbLine
 10
200.0
 20
200.0
 30
0.0
 11
25.958668
 21
218.292481
 31
0.0
  0
LINE
  5
76
100
AcDbEntity
  8
M
100
AcDbLine
 10
200.0
 20
200.0
 30
0.0
 11
25.0
 21
200.0
 31
0.0
  0
LINE
  5
77
100
AcDbEntity
  8
M
100
AcDbLine
 10
200.0
 20
200.0
 30
0.0
 11
25.958668
 21
181.707519
 31
0.0
  0
LINE
  5
78
100
AcDbEntity
  8
M
100
AcDbLine
 10
200.0
 20
200.0
 30
0.0
 11
28.82417
 21
163.615454
 31
0.0
  0
LINE
  5
79
100
AcDbEntity
  8
M
100
AcDbLine
 10
200.0
 20
200.0
 30
0.0
 11
33.56511
 21
145.922026
 31
0.0
  0
LINE
  5
7A
100
AcDbEntity
  8
M
100
AcDbLine
 10
200.0
 20
200.0
 30
0.0
 11
40.129545
 21
128.821087
 31
0.0
  0
LINE
  5
7B
100
AcDbEntity
  8
M
100
AcDbLine
 10
200.0
 20
200.0
 30
0.0
 11
48.445554
 21
112.5
 31
0.0
  0
LINE
  5
7C
100
AcDbEntity
  8
M
100
AcDbLine
 10
200.0
 20
200.0
 30
0.0
 11
58.422026
 21
97.137581
 31
0.0
  0
LINE
  5
7D
100
AcDbEntity
  8
M
100
AcDbLine
 10
200.0
 20
200.0
 30
0.0
 11
69.949656
 21
82.902144
 31
0.0
  0
LINE
  5
7E
100
AcDbEntity
  8
M
100
AcDbLine
 10
200.0
 20
200.0
 30
0.0
 11
82.902144
 21
69.949656
 31
0.0
  0
LINE
  5
7F
100
AcDbEntity
  8
M
100
AcDbLine
 10
200.0
 20
200.0
 30
0.0
 11
97.137581
 21
58.422026
 31
0.0
  0
LINE
  5
80
100
AcDbEntity
  8
M
100
AcDbLine
 10
200.0
 20
200.0
 30
0.0
 11
112.5
 21
48.445554
 31
0.0
  0
LINE
  5
81
100
AcDbEntity
  8
M
100
AcDbLine
 10
200.0
 20
200.0
 30
0.0
 11
128.821087
 21
40.129545
 31
0.0
  0
LINE
  5
82
100
AcDbEntity
  8
M
100
AcDbLine
 10
200.0
 20
200.0
 30
0.0
 11
145.922026
 21
33.56511
 31
0.0
  0
LINE
  5
83
100
AcDbEntity
  8
M
100
AcDbLine
 10
200.0
 20
200.0
 30
0.0
 11
163.615454
 21
28.82417
 31
0.0
  0
LINE
  5
84
100
AcDbEntity
  8
M
100
AcDbLine
 10
200.0
 20
200.0
 30
0.0
 11
181.707519
 21
25.958668
 31
0.0
  0
LINE
  5
85
100
AcDbEntity
  8
M
100
AcDbLine
 10
200.0
 20
200.0
 30
0.0
 11
200.0
 21
25.0
 31
0.0
  0
LINE
  5
86
100
AcDbEntity
  8
M
100
AcDbLine
 10
200.0
 20
200.0
 30
0.0
 11
218.292481
 21
25.958668
 31
0.0
  0
LINE
  5
87
100
AcDbEntity
  8
M
100
AcDbLine
 10
200.0
 20
200.0
 30
0.0
 11
236.384546
 21
28.82417
 31
0.0
  0
LINE
  5
88
100
AcDbEntity
  8
M
100
AcDbLine
 10
200.0
 20
200.0
 30
0.0
 11
254.077974
 21
33.56511
 31
0.0
  0
LINE
  5
89
100
AcDbEntity
  8
M
100
AcDbLine
 10
200.0
 20
200.0
 30
0.0
 11
271.178913
 21
40.129545
 31
0.0
  0
LINE
  5
8A
100
AcDbEntity
  8
M
100
AcDbLine
 10
200.0
 20
200.0
 30
0.0
 11
287.5
 21
48.445554
 31
0.0
  0
LINE
  5
8B
100
AcDbEntity
  8
M
100
AcDbLine
 10
200.0
 20
200.0
 30
0.0
 11
302.862419
 21
58.422026
 31
0.0
  0
LINE
  5
8C
100
AcDbEntity
  8
M
100
AcDbLine
 10
200.0
 20
200.0
 30
0.0
 11
317.097856
 21
69.949656
 31
0.0
  0
LINE
  5
8D
100
AcDbEntity
  8
M
100
AcDbLine
 10
200.0
 20
200.0
 30
0.0
 11
330.050344
 21
82.902144
 31
0.0
  0
LINE
  5
8E
100
AcDbEntity
  8
M
100
AcDbLine
 10
200.0
 20
200.0
 30
0.0
 11
341.577974
 21
97.137581
 31
0.0
  0
LINE
  5
8F
100
AcDbEntity
  8
M
100
AcDbLine
 10
200.0
 20
200.0
 30
0.0
 11
351.554446
 21
112.5
 31
0.0
  0
LINE
  5
90
100
AcDbEntity
  8
M
100
AcDbLine
 10
200.0
 20
200.0
 30
0.0
 11
359.870455
 21
128.821087
 31
0.0
  0
LINE
  5
91
100
AcDbEntity
  8
M
100
AcDbLine
 10
200.0
 20
200.0
 30
0.0
 11
366.43489
 21
145.922026
 31
0.0
  0
LINE
  5
92
100
AcDbEntity
  8
M
100
AcDbLine
 10
200.0
 20
200.0
 30
0.0
 11
371.17583
 21
163.615454
 31
0.0
  0
LINE
  5
93
100
AcDbEntity
  8
M
100
AcDbLine
 10
200.0
 20
200.0
 30
0.0
 11
374.041332
 21
181.707519
 31
0.0
  0
LINE
  5
AB
100
AcDbEntity
  8
0
100
AcDbLine
 10
200.0
 20
350.0
 30
0.0
 11
200.0
 21
400.0
 31
0.0
  0
LINE
  5
AC
100
AcDbEntity
  8
0
100
AcDbLine
 10
181.707519
 20
374.041332
 30
0.0
 11
179.094307
 21
398.904379
 31
0.0
  0
LINE
  5
AD
100
AcDbEntity
  8
0
100
AcDbLine
 10
163.615454
 20
371.17583
 30
0.0
 11
158.417662
 21
395.62952
 31
0.0
  0
LINE
  5
AE
100
AcDbEntity
  8
0
100
AcDbLine
 10
145.922026
 20
366.43489
 30
0.0
 11
138.196601
 21
390.211303
 31
0.0
  0
LINE
  5
AF
100
AcDbEntity
  8
0
100
AcDbLine
 10
128.821087
 20
359.870455
 30
0.0
 11
118.652671
 21
382.709092
 31
0.0
  0
LINE
  5
B0
100
AcDbEntity
  8
0
100
AcDbLine
 10
125.0
 20
329.903811
 30
0.0
 11
100.0
 21
373.205081
 31
0.0
  0
LINE
  5
B1
100
AcDbEntity
  8
0
100
AcDbLine
 10
97.137581
 20
341.577974
 30
0.0
 11
82.44295
 21
361.803399
 31
0.0
  0
LINE
  5
B2
100
AcDbEntity
  8
0
100
AcDbLine
 10
82.902144
 20
330.050344
 30
0.0
 11
66.173879
 21
348.628965
 31
0.0
  0
LINE
  5
B3
100
AcDbEntity
  8
0
100
AcDbLine
 10
69.949656
 20
317.097856
 30
0.0
 11
51.371035
 21
333.826121
 31
0.0
  0
LINE
  5
B4
100
AcDbEntity
  8
0
100
AcDbLine
 10
58.422026
 20
302.862419
 30
0.0
 11
38.196601
 21
317.55705
 31
0.0
  0
LINE
  5
B5
100
AcDbEntity
  8
0
100
AcDbLine
 10
70.096189
 20
275.0
 30
0.0
 11
26.794919
 21
300.0
 31
0.0
  0
LINE
  5
B6
100
AcDbEntity
  8
0
100
AcDbLine
 10
40.129545
 20
271.178913
 30
0.0
 11
17.290908
 21
281.347329
 31
0.0
  0
LINE
  5
B7
100
AcDbEntity
  8
0
100
AcDbLine
 10
33.56511
 20
254.077974
 30
0.0
 11
9.788697
 21
261.803399
 31
0.0
  0
LINE
  5
B8
100
AcDbEntity
  8
0
100
AcDbLine
 10
28.82417
 20
236.384546
 30
0.0
 11
4.37048
 21
241.582338
 31
0.0
  0
LINE
  5
B9
100
AcDbEntity
  8
0
100
AcDbLine
 10
25.958668
 20
218.292481
 30
0.0
 11
1.095621
 21
220.905693
 31
0.0
  0
LINE
  5
BA
100
AcDbEntity
  8
0
100
AcDbLine
 10
50.0
 20
200.0
 30
0.0
 11
0.0
 21
200.0
 31
0.0
  0
LINE
  5
BB
100
AcDbEntity
  8
0
100
AcDbLine
 10
25.958668
 20
181.707519
 30
0.0
 11
1.095621
 21
179.094307
 31
0.0
  0
LINE
  5
BC
100
AcDbEntity
  8
0
100
AcDbLine
 10
28.82417
 20
163.615454
 30
0.0
 11
4.37048
 21
158.417662
 31
0.0
  0
LINE
  5
BD
100
AcDbEntity
  8
0
100
AcDbLine
 10
33.56511
 20
145.922026
 30
0.0
 11
9.788697
 21
138.196601
 31
0.0
  0
LINE
  5
BE
100
AcDbEntity
  8
0
100
AcDbLine
 10
40.129545
 20
128.821087
 30
0.0
 11
17.290908
 21
118.652671
 31
0.0
  0
LINE
  5
BF
100
AcDbEntity
  8
0
100
AcDbLine
 10
70.096189
 20
125.0
 30
0.0
 11
26.794919
 21
100.0
 31
0.0
  0
LINE
  5
C0
100
AcDbEntity
  8
0
100
AcDbLine
 10
58.422026
 20
97.137581
 30
0.0
 11
38.196601
 21
82.44295
 31
0.0
  0
LINE
  5
C1
100
AcDbEntity
  8
0
100
AcDbLine
 10
69.949656
 20
82.902144
 30
0.0
 11
51.371035
 21
66.173879
 31
0.0
  0
LINE
  5
C2
100
AcDbEntity
  8
0
100
AcDbLine
 10
82.902144
 20
69.949656
 30
0.0
 11
66.173879
 21
51.371035
 31
0.0
  0
LINE
  5
C3
100
AcDbEntity
  8
0
100
AcDbLine
 10
97.137581
 20
58.422026
 30
0.0
 11
82.44295
 21
38.196601
 31
0.0
  0
LINE
  5
C4
100
AcDbEntity
  8
0
100
AcDbLine
 10
125.0
 20
70.096189
 30
0.0
 11
100.0
 21
26.794919
 31
0.0
  0
LINE
  5
C5
100
AcDbEntity
  8
0
100
AcDbLine
 10
128.821087
 20
40.129545
 30
0.0
 11
118.652671
 21
17.290908
 31
0.0
  0
LINE
  5
C6
100
AcDbEntity
  8
0
100
AcDbLine
 10
145.922026
 20
33.56511
 30
0.0
 11
138.196601
 21
9.788697
 31
0.0
  0
LINE
  5
C7
100
AcDbEntity
  8
0
100
AcDbLine
 10
163.615454
 20
28.82417
 30
0.0
 11
158.417662
 21
4.37048
 31
0.0
  0
LINE
  5
C8
100
AcDbEntity
  8
0
100
AcDbLine
 10
181.707519
 20
25.958668
 30
0.0
 11
179.094307
 21
1.095621
 31
0.0
  0
LINE
  5
C9
100
AcDbEntity
  8
0
100
AcDbLine
 10
200.0
 20
50.0
 30
0.0
 11
200.0
 21
0.0
 31
0.0
  0
LINE
  5
CA
100
AcDbEntity
  8
0
100
AcDbLine
 10
218.292481
 20
25.958668
 30
0.0
 11
220.905693
 21
1.095621
 31
0.0
  0
LINE
  5
CB
100
AcDbEntity
  8
0
100
AcDbLine
 10
236.384546
 20
28.82417
 30
0.0
 11
241.582338
 21
4.37048
 31
0.0
  0
LINE
  5
CC
100
AcDbEntity
  8
0
100
AcDbLine
 10
254.077974
 20
33.56511
 30
0.0
 11
261.803399
 21
9.788697
 31
0.0
  0
LINE
  5
CD
100
AcDbEntity
  8
0
100
AcDbLine
 10
271.178913
 20
40.129545
 30
0.0
 11
281.347329
 21
17.290908
 31
0.0
  0
LINE
  5
CE
100
AcDbEntity
  8
0
100
AcDbLine
 10
275.0
 20
70.096189
 30
0.0
 11
300.0
 21
26.794919
 31
0.0
  0
LINE
  5
CF
100
AcDbEntity
  8
0
100
AcDbLine
 10
302.862419
 20
58.422026
 30
0.0
 11
317.55705
 21
38.196601
 31
0.0
  0
LINE
  5
D0
100
AcDbEntity
  8
0
100
AcDbLine
 10
317.097856
 20
69.949656
 30
0.0
 11
333.826121
 21
51.371035
 31
0.0
  0
LINE
  5
D1
100
AcDbEntity
  8
0
100
AcDbLine
 10
330.050344
 20
82.902144
 30
0.0
 11
348.628965
 21
66.173879
 31
0.0
  0
LINE
  5
D2
100
AcDbEntity
  8
0
100
AcDbLine
 10
341.577974
 20
97.137581
 30
0.0
 11
361.803399
 21
82.44295
 31
0.0
  0
LINE
  5
D3
100
AcDbEntity
  8
0
100
AcDbLine
 10
329.903811
 20
125.0
 30
0.0
 11
373.205081
 21
100.0
 31
0.0
  0
LINE
  5
D4
100
AcDbEntity
  8
0
100
AcDbLine
 10
359.870455
 20
128.821087
 30
0.0
 11
382.709092
 21
118.652671
 31
0.0
  0
LINE
  5
D5
100
AcDbEntity
  8
0
100
AcDbLine
 10
366.43489
 20
145.922026
 30
0.0
 11
390.211303
 21
138.196601
 31
0.0
  0
LINE
  5
D6
100
AcDbEntity
  8
0
100
AcDbLine
 10
371.17583
 20
163.615454
 30
0.0
 11
395.62952
 21
158.417662
 31
0.0
  0
LINE
  5
D7
100
AcDbEntity
  8
0
100
AcDbLine
 10
374.041332
 20
181.707519
 30
0.0
 11
398.904379
 21
179.094307
 31
0.0
  0
LINE
  5
D8
100
AcDbEntity
  8
0
100
AcDbLine
 10
350.0
 20
200.0
 30
0.0
 11
400.0
 21
200.0
 31
0.0
  0
LINE
  5
D9
100
AcDbEntity
  8
0
100
AcDbLine
 10
374.041332
 20
218.292481
 30
0.0
 11
398.904379
 21
220.905693
 31
0.0
  0
LINE
  5
DA
100
AcDbEntity
  8
0
100
AcDbLine
 10
371.17583
 20
236.384546
 30
0.0
 11
395.62952
 21
241.582338
 31
0.0
  0
LINE
  5
DB
100
AcDbEntity
  8
0
100
AcDbLine
 10
366.43489
 20
254.077974
 30
0.0
 11
390.211303
 21
261.803399
 31
0.0
  0
LINE
  5
DC
100
AcDbEntity
  8
0
100
AcDbLine
 10
359.870455
 20
271.178913
 30
0.0
 11
382.709092
 21
281.347329
 31
0.0
  0
LINE
  5
DD
100
AcDbEntity
  8
0
100
AcDbLine
 10
329.903811
 20
275.0
 30
0.0
 11
373.205081
 21
300.0
 31
0.0
  0
LINE
  5
DE
100
AcDbEntity
  8
0
100
AcDbLine
 10
341.577974
 20
302.862419
 30
0.0
 11
361.803399
 21
317.55705
 31
0.0
  0
LINE
  5
DF
100
AcDbEntity
  8
0
100
AcDbLine
 10
330.050344
 20
317.097856
 30
0.0
 11
348.628965
 21
333.826121
 31
0.0
  0
LINE
  5
E0
100
AcDbEntity
  8
0
100
AcDbLine
 10
317.097856
 20
330.050344
 30
0.0
 11
333.826121
 21
348.628965
 31
0.0
  0
LINE
  5
E1
100
AcDbEntity
  8
0
100
AcDbLine
 10
302.862419
 20
341.577974
 30
0.0
 11
317.55705
 21
361.803399
 31
0.0
  0
LINE
  5
E2
100
AcDbEntity
  8
0
100
AcDbLine
 10
275.0
 20
329.903811
 30
0.0
 11
300.0
 21
373.205081
 31
0.0
  0
LINE
  5
E3
100
AcDbEntity
  8
0
100
AcDbLine
 10
271.178913
 20
359.870455
 30
0.0
 11
281.347329
 21
382.709092
 31
0.0
  0
LINE
  5
E4
100
AcDbEntity
  8
0
100
AcDbLine
 10
254.077974
 20
366.43489
 30
0.0
 11
261.803399
 21
390.211303
 31
0.0
  0
LINE
  5
E5
100
AcDbEntity
  8
0
100
AcDbLine
 10
236.384546
 20
371.17583
 30
0.0
 11
241.582338
 21
395.62952
 31
0.0
  0
LINE
  5
E6
100
AcDbEntity
  8
0
100
AcDbLine
 10
218.292481
 20
374.041332
 30
0.0
 11
220.905693
 21
398.904379
 31
0.0
  0
ENDSEC
  0
SECTION
  2
OBJECTS
  0
DICTIONARY
  5
C
100
AcDbDictionary
  3
ACAD_GROUP
350
D
  3
ACAD_MLINESTYLE
350
1B
  0
DICTIONARY
  5
D
102
{ACAD_REACTORS
330
C
102
}
100
AcDbDictionary
  0
DICTIONARY
  5
1B
102
{ACAD_REACTORS
330
C
102
}
100
AcDbDictionary
  3
STANDARD
350
1C
  0
MLINESTYLE
  5
1C
102
{ACAD_REACTORS
330
1B
102
}
100
AcDbMlineStyle
  2
STANDARD
 70
     0
  3

 62
   256
 51
90.0
 52
90.0
 71
     2
 49
0.5
 62
   256
  6
BYLAYER
 49
-0.5
 62
   256
  6
BYLAYER
  0
ENDSEC
  0
EOF
